M48
;DRILL file {KiCad no-vcs-found-product} date Вт 05 июл 2016 14:43:37
;FORMAT={-:-/ absolute / metric / decimal}
FMAT,2
METRIC,TZ
T1C0.800
T2C0.900
T3C1.001
T4C1.100
T5C1.524
%
G90
G05
M71
T1
X153.4Y-92.2
X153.4Y-97.2
T2
X156.075Y-103.325
X156.075Y-108.325
X162.3Y-96.825
X167.3Y-96.825
T3
X160.2Y-100.64
X160.2Y-110.8
X161.31Y-87.775
X163.2Y-100.6
X163.2Y-110.76
X163.85Y-87.775
X166.25Y-100.64
X166.25Y-110.8
X166.39Y-87.775
X173.71Y-98.39
X181.33Y-98.39
T4
X160.124Y-118.174
X162.024Y-118.174
X163.825Y-118.174
X165.626Y-118.174
X167.526Y-118.174
T5
X191.Y-100.46
X191.Y-105.54
X191.Y-112.46
X191.Y-117.54
T0
M30
