G04 #@! TF.FileFunction,Profile,NP*
%FSLAX46Y46*%
G04 Gerber Fmt 4.6, Leading zero omitted, Abs format (unit mm)*
G04 Created by KiCad (PCBNEW no-vcs-found-product) date Вт 05 июл 2016 14:43:35*
%MOMM*%
G01*
G04 APERTURE LIST*
%ADD10C,0.100000*%
%ADD11C,0.150000*%
%ADD12C,0.300000*%
%ADD13C,0.400000*%
G04 APERTURE END LIST*
D10*
D11*
X177002200Y-166007200D02*
X177002200Y-198007200D01*
X285002200Y-198007200D01*
X285002200Y-166007200D01*
X177002200Y-166007200D01*
D10*
D11*
X10000000Y-10000000D02*
X10000000Y-200007200D01*
X287002200Y-200007200D01*
X287002200Y-10000000D01*
X10000000Y-10000000D01*
D10*
D11*
X12000000Y-12000000D02*
X12000000Y-198007200D01*
X285002200Y-198007200D01*
X285002200Y-12000000D01*
X12000000Y-12000000D01*
D10*
D11*
X60000000Y-12000000D02*
X60000000Y-10000000D01*
D10*
D11*
X110000000Y-12000000D02*
X110000000Y-10000000D01*
D10*
D11*
X160000000Y-12000000D02*
X160000000Y-10000000D01*
D10*
D11*
X210000000Y-12000000D02*
X210000000Y-10000000D01*
D10*
D11*
X260000000Y-12000000D02*
X260000000Y-10000000D01*
D10*
D11*
X35990476Y-11588095D02*
X35247619Y-11588095D01*
X35619048Y-11588095D02*
X35619048Y-10288095D01*
X35495238Y-10473810D01*
X35371429Y-10597619D01*
X35247619Y-10659524D01*
D10*
D11*
X85247619Y-10411905D02*
X85309524Y-10350000D01*
X85433333Y-10288095D01*
X85742857Y-10288095D01*
X85866667Y-10350000D01*
X85928571Y-10411905D01*
X85990476Y-10535714D01*
X85990476Y-10659524D01*
X85928571Y-10845238D01*
X85185714Y-11588095D01*
X85990476Y-11588095D01*
D10*
D11*
X135185714Y-10288095D02*
X135990476Y-10288095D01*
X135557143Y-10783333D01*
X135742857Y-10783333D01*
X135866667Y-10845238D01*
X135928571Y-10907143D01*
X135990476Y-11030952D01*
X135990476Y-11340476D01*
X135928571Y-11464286D01*
X135866667Y-11526190D01*
X135742857Y-11588095D01*
X135371429Y-11588095D01*
X135247619Y-11526190D01*
X135185714Y-11464286D01*
D10*
D11*
X185866667Y-10721429D02*
X185866667Y-11588095D01*
X185557143Y-10226190D02*
X185247619Y-11154762D01*
X186052381Y-11154762D01*
D10*
D11*
X235928571Y-10288095D02*
X235309524Y-10288095D01*
X235247619Y-10907143D01*
X235309524Y-10845238D01*
X235433333Y-10783333D01*
X235742857Y-10783333D01*
X235866667Y-10845238D01*
X235928571Y-10907143D01*
X235990476Y-11030952D01*
X235990476Y-11340476D01*
X235928571Y-11464286D01*
X235866667Y-11526190D01*
X235742857Y-11588095D01*
X235433333Y-11588095D01*
X235309524Y-11526190D01*
X235247619Y-11464286D01*
D10*
D11*
X285866667Y-10288095D02*
X285619048Y-10288095D01*
X285495238Y-10350000D01*
X285433333Y-10411905D01*
X285309524Y-10597619D01*
X285247619Y-10845238D01*
X285247619Y-11340476D01*
X285309524Y-11464286D01*
X285371429Y-11526190D01*
X285495238Y-11588095D01*
X285742857Y-11588095D01*
X285866667Y-11526190D01*
X285928571Y-11464286D01*
X285990476Y-11340476D01*
X285990476Y-11030952D01*
X285928571Y-10907143D01*
X285866667Y-10845238D01*
X285742857Y-10783333D01*
X285495238Y-10783333D01*
X285371429Y-10845238D01*
X285309524Y-10907143D01*
X285247619Y-11030952D01*
D10*
D11*
X60000000Y-198007200D02*
X60000000Y-200007200D01*
D10*
D11*
X110000000Y-198007200D02*
X110000000Y-200007200D01*
D10*
D11*
X160000000Y-198007200D02*
X160000000Y-200007200D01*
D10*
D11*
X210000000Y-198007200D02*
X210000000Y-200007200D01*
D10*
D11*
X260000000Y-198007200D02*
X260000000Y-200007200D01*
D10*
D11*
X35990476Y-199595295D02*
X35247619Y-199595295D01*
X35619048Y-199595295D02*
X35619048Y-198295295D01*
X35495238Y-198481010D01*
X35371429Y-198604819D01*
X35247619Y-198666724D01*
D10*
D11*
X85247619Y-198419105D02*
X85309524Y-198357200D01*
X85433333Y-198295295D01*
X85742857Y-198295295D01*
X85866667Y-198357200D01*
X85928571Y-198419105D01*
X85990476Y-198542914D01*
X85990476Y-198666724D01*
X85928571Y-198852438D01*
X85185714Y-199595295D01*
X85990476Y-199595295D01*
D10*
D11*
X135185714Y-198295295D02*
X135990476Y-198295295D01*
X135557143Y-198790533D01*
X135742857Y-198790533D01*
X135866667Y-198852438D01*
X135928571Y-198914343D01*
X135990476Y-199038152D01*
X135990476Y-199347676D01*
X135928571Y-199471486D01*
X135866667Y-199533390D01*
X135742857Y-199595295D01*
X135371429Y-199595295D01*
X135247619Y-199533390D01*
X135185714Y-199471486D01*
D10*
D11*
X185866667Y-198728629D02*
X185866667Y-199595295D01*
X185557143Y-198233390D02*
X185247619Y-199161962D01*
X186052381Y-199161962D01*
D10*
D11*
X235928571Y-198295295D02*
X235309524Y-198295295D01*
X235247619Y-198914343D01*
X235309524Y-198852438D01*
X235433333Y-198790533D01*
X235742857Y-198790533D01*
X235866667Y-198852438D01*
X235928571Y-198914343D01*
X235990476Y-199038152D01*
X235990476Y-199347676D01*
X235928571Y-199471486D01*
X235866667Y-199533390D01*
X235742857Y-199595295D01*
X235433333Y-199595295D01*
X235309524Y-199533390D01*
X235247619Y-199471486D01*
D10*
D11*
X285866667Y-198295295D02*
X285619048Y-198295295D01*
X285495238Y-198357200D01*
X285433333Y-198419105D01*
X285309524Y-198604819D01*
X285247619Y-198852438D01*
X285247619Y-199347676D01*
X285309524Y-199471486D01*
X285371429Y-199533390D01*
X285495238Y-199595295D01*
X285742857Y-199595295D01*
X285866667Y-199533390D01*
X285928571Y-199471486D01*
X285990476Y-199347676D01*
X285990476Y-199038152D01*
X285928571Y-198914343D01*
X285866667Y-198852438D01*
X285742857Y-198790533D01*
X285495238Y-198790533D01*
X285371429Y-198852438D01*
X285309524Y-198914343D01*
X285247619Y-199038152D01*
D10*
D11*
X10000000Y-60000000D02*
X12000000Y-60000000D01*
D10*
D11*
X10000000Y-110000000D02*
X12000000Y-110000000D01*
D10*
D11*
X10000000Y-160000000D02*
X12000000Y-160000000D01*
D10*
D11*
X10690476Y-35216667D02*
X11309524Y-35216667D01*
X10566667Y-35588095D02*
X11000000Y-34288095D01*
X11433333Y-35588095D01*
D10*
D11*
X11092857Y-84907143D02*
X11278571Y-84969048D01*
X11340476Y-85030952D01*
X11402381Y-85154762D01*
X11402381Y-85340476D01*
X11340476Y-85464286D01*
X11278571Y-85526190D01*
X11154762Y-85588095D01*
X10659524Y-85588095D01*
X10659524Y-84288095D01*
X11092857Y-84288095D01*
X11216667Y-84350000D01*
X11278571Y-84411905D01*
X11340476Y-84535714D01*
X11340476Y-84659524D01*
X11278571Y-84783333D01*
X11216667Y-84845238D01*
X11092857Y-84907143D01*
X10659524Y-84907143D01*
D10*
D11*
X11402381Y-135464286D02*
X11340476Y-135526190D01*
X11154762Y-135588095D01*
X11030952Y-135588095D01*
X10845238Y-135526190D01*
X10721429Y-135402381D01*
X10659524Y-135278571D01*
X10597619Y-135030952D01*
X10597619Y-134845238D01*
X10659524Y-134597619D01*
X10721429Y-134473810D01*
X10845238Y-134350000D01*
X11030952Y-134288095D01*
X11154762Y-134288095D01*
X11340476Y-134350000D01*
X11402381Y-134411905D01*
D10*
D11*
X10659524Y-185588095D02*
X10659524Y-184288095D01*
X10969048Y-184288095D01*
X11154762Y-184350000D01*
X11278571Y-184473810D01*
X11340476Y-184597619D01*
X11402381Y-184845238D01*
X11402381Y-185030952D01*
X11340476Y-185278571D01*
X11278571Y-185402381D01*
X11154762Y-185526190D01*
X10969048Y-185588095D01*
X10659524Y-185588095D01*
D10*
D11*
X287002200Y-60000000D02*
X285002200Y-60000000D01*
D10*
D11*
X287002200Y-110000000D02*
X285002200Y-110000000D01*
D10*
D11*
X287002200Y-160000000D02*
X285002200Y-160000000D01*
D10*
D11*
X285692676Y-35216667D02*
X286311724Y-35216667D01*
X285568867Y-35588095D02*
X286002200Y-34288095D01*
X286435533Y-35588095D01*
D10*
D11*
X286095057Y-84907143D02*
X286280771Y-84969048D01*
X286342676Y-85030952D01*
X286404581Y-85154762D01*
X286404581Y-85340476D01*
X286342676Y-85464286D01*
X286280771Y-85526190D01*
X286156962Y-85588095D01*
X285661724Y-85588095D01*
X285661724Y-84288095D01*
X286095057Y-84288095D01*
X286218867Y-84350000D01*
X286280771Y-84411905D01*
X286342676Y-84535714D01*
X286342676Y-84659524D01*
X286280771Y-84783333D01*
X286218867Y-84845238D01*
X286095057Y-84907143D01*
X285661724Y-84907143D01*
D10*
D11*
X286404581Y-135464286D02*
X286342676Y-135526190D01*
X286156962Y-135588095D01*
X286033152Y-135588095D01*
X285847438Y-135526190D01*
X285723629Y-135402381D01*
X285661724Y-135278571D01*
X285599819Y-135030952D01*
X285599819Y-134845238D01*
X285661724Y-134597619D01*
X285723629Y-134473810D01*
X285847438Y-134350000D01*
X286033152Y-134288095D01*
X286156962Y-134288095D01*
X286342676Y-134350000D01*
X286404581Y-134411905D01*
D10*
D11*
X285661724Y-185588095D02*
X285661724Y-184288095D01*
X285971248Y-184288095D01*
X286156962Y-184350000D01*
X286280771Y-184473810D01*
X286342676Y-184597619D01*
X286404581Y-184845238D01*
X286404581Y-185030952D01*
X286342676Y-185278571D01*
X286280771Y-185402381D01*
X286156962Y-185526190D01*
X285971248Y-185588095D01*
X285661724Y-185588095D01*
D10*
D11*
X200359343Y-193785771D02*
X200359343Y-192285771D01*
X200716486Y-192285771D01*
X200930771Y-192357200D01*
X201073629Y-192500057D01*
X201145057Y-192642914D01*
X201216486Y-192928629D01*
X201216486Y-193142914D01*
X201145057Y-193428629D01*
X201073629Y-193571486D01*
X200930771Y-193714343D01*
X200716486Y-193785771D01*
X200359343Y-193785771D01*
X202502200Y-193785771D02*
X202502200Y-193000057D01*
X202430771Y-192857200D01*
X202287914Y-192785771D01*
X202002200Y-192785771D01*
X201859343Y-192857200D01*
X202502200Y-193714343D02*
X202359343Y-193785771D01*
X202002200Y-193785771D01*
X201859343Y-193714343D01*
X201787914Y-193571486D01*
X201787914Y-193428629D01*
X201859343Y-193285771D01*
X202002200Y-193214343D01*
X202359343Y-193214343D01*
X202502200Y-193142914D01*
X203002200Y-192785771D02*
X203573629Y-192785771D01*
X203216486Y-192285771D02*
X203216486Y-193571486D01*
X203287914Y-193714343D01*
X203430772Y-193785771D01*
X203573629Y-193785771D01*
X204645057Y-193714343D02*
X204502200Y-193785771D01*
X204216486Y-193785771D01*
X204073629Y-193714343D01*
X204002200Y-193571486D01*
X204002200Y-193000057D01*
X204073629Y-192857200D01*
X204216486Y-192785771D01*
X204502200Y-192785771D01*
X204645057Y-192857200D01*
X204716486Y-193000057D01*
X204716486Y-193142914D01*
X204002200Y-193285771D01*
X205359343Y-193642914D02*
X205430771Y-193714343D01*
X205359343Y-193785771D01*
X205287914Y-193714343D01*
X205359343Y-193642914D01*
X205359343Y-193785771D01*
X205359343Y-192857200D02*
X205430771Y-192928629D01*
X205359343Y-193000057D01*
X205287914Y-192928629D01*
X205359343Y-192857200D01*
X205359343Y-193000057D01*
X207145057Y-192428629D02*
X207216486Y-192357200D01*
X207359343Y-192285771D01*
X207716486Y-192285771D01*
X207859343Y-192357200D01*
X207930772Y-192428629D01*
X208002200Y-192571486D01*
X208002200Y-192714343D01*
X207930772Y-192928629D01*
X207073629Y-193785771D01*
X208002200Y-193785771D01*
X208859343Y-192928629D02*
X208716485Y-192857200D01*
X208645057Y-192785771D01*
X208573628Y-192642914D01*
X208573628Y-192571486D01*
X208645057Y-192428629D01*
X208716485Y-192357200D01*
X208859343Y-192285771D01*
X209145057Y-192285771D01*
X209287914Y-192357200D01*
X209359343Y-192428629D01*
X209430771Y-192571486D01*
X209430771Y-192642914D01*
X209359343Y-192785771D01*
X209287914Y-192857200D01*
X209145057Y-192928629D01*
X208859343Y-192928629D01*
X208716485Y-193000057D01*
X208645057Y-193071486D01*
X208573628Y-193214343D01*
X208573628Y-193500057D01*
X208645057Y-193642914D01*
X208716485Y-193714343D01*
X208859343Y-193785771D01*
X209145057Y-193785771D01*
X209287914Y-193714343D01*
X209359343Y-193642914D01*
X209430771Y-193500057D01*
X209430771Y-193214343D01*
X209359343Y-193071486D01*
X209287914Y-193000057D01*
X209145057Y-192928629D01*
X210073628Y-193642914D02*
X210145056Y-193714343D01*
X210073628Y-193785771D01*
X210002199Y-193714343D01*
X210073628Y-193642914D01*
X210073628Y-193785771D01*
X211073628Y-192285771D02*
X211216485Y-192285771D01*
X211359342Y-192357200D01*
X211430771Y-192428629D01*
X211502200Y-192571486D01*
X211573628Y-192857200D01*
X211573628Y-193214343D01*
X211502200Y-193500057D01*
X211430771Y-193642914D01*
X211359342Y-193714343D01*
X211216485Y-193785771D01*
X211073628Y-193785771D01*
X210930771Y-193714343D01*
X210859342Y-193642914D01*
X210787914Y-193500057D01*
X210716485Y-193214343D01*
X210716485Y-192857200D01*
X210787914Y-192571486D01*
X210859342Y-192428629D01*
X210930771Y-192357200D01*
X211073628Y-192285771D01*
X212073628Y-192285771D02*
X213002199Y-192285771D01*
X212502199Y-192857200D01*
X212716485Y-192857200D01*
X212859342Y-192928629D01*
X212930771Y-193000057D01*
X213002199Y-193142914D01*
X213002199Y-193500057D01*
X212930771Y-193642914D01*
X212859342Y-193714343D01*
X212716485Y-193785771D01*
X212287913Y-193785771D01*
X212145056Y-193714343D01*
X212073628Y-193642914D01*
X213645056Y-193642914D02*
X213716484Y-193714343D01*
X213645056Y-193785771D01*
X213573627Y-193714343D01*
X213645056Y-193642914D01*
X213645056Y-193785771D01*
X214287913Y-192428629D02*
X214359342Y-192357200D01*
X214502199Y-192285771D01*
X214859342Y-192285771D01*
X215002199Y-192357200D01*
X215073628Y-192428629D01*
X215145056Y-192571486D01*
X215145056Y-192714343D01*
X215073628Y-192928629D01*
X214216485Y-193785771D01*
X215145056Y-193785771D01*
X216073627Y-192285771D02*
X216216484Y-192285771D01*
X216359341Y-192357200D01*
X216430770Y-192428629D01*
X216502199Y-192571486D01*
X216573627Y-192857200D01*
X216573627Y-193214343D01*
X216502199Y-193500057D01*
X216430770Y-193642914D01*
X216359341Y-193714343D01*
X216216484Y-193785771D01*
X216073627Y-193785771D01*
X215930770Y-193714343D01*
X215859341Y-193642914D01*
X215787913Y-193500057D01*
X215716484Y-193214343D01*
X215716484Y-192857200D01*
X215787913Y-192571486D01*
X215859341Y-192428629D01*
X215930770Y-192357200D01*
X216073627Y-192285771D01*
X218002198Y-193785771D02*
X217145055Y-193785771D01*
X217573627Y-193785771D02*
X217573627Y-192285771D01*
X217430770Y-192500057D01*
X217287912Y-192642914D01*
X217145055Y-192714343D01*
X219287912Y-192285771D02*
X219002198Y-192285771D01*
X218859341Y-192357200D01*
X218787912Y-192428629D01*
X218645055Y-192642914D01*
X218573626Y-192928629D01*
X218573626Y-193500057D01*
X218645055Y-193642914D01*
X218716483Y-193714343D01*
X218859341Y-193785771D01*
X219145055Y-193785771D01*
X219287912Y-193714343D01*
X219359341Y-193642914D01*
X219430769Y-193500057D01*
X219430769Y-193142914D01*
X219359341Y-193000057D01*
X219287912Y-192928629D01*
X219145055Y-192857200D01*
X218859341Y-192857200D01*
X218716483Y-192928629D01*
X218645055Y-193000057D01*
X218573626Y-193142914D01*
D10*
D11*
X177002200Y-194507200D02*
X285002200Y-194507200D01*
D10*
D11*
X178359343Y-196585771D02*
X178359343Y-195085771D01*
X179216486Y-196585771D02*
X178573629Y-195728629D01*
X179216486Y-195085771D02*
X178359343Y-195942914D01*
X179859343Y-196585771D02*
X179859343Y-195585771D01*
X179859343Y-195085771D02*
X179787914Y-195157200D01*
X179859343Y-195228629D01*
X179930771Y-195157200D01*
X179859343Y-195085771D01*
X179859343Y-195228629D01*
X181430772Y-196442914D02*
X181359343Y-196514343D01*
X181145057Y-196585771D01*
X181002200Y-196585771D01*
X180787915Y-196514343D01*
X180645057Y-196371486D01*
X180573629Y-196228629D01*
X180502200Y-195942914D01*
X180502200Y-195728629D01*
X180573629Y-195442914D01*
X180645057Y-195300057D01*
X180787915Y-195157200D01*
X181002200Y-195085771D01*
X181145057Y-195085771D01*
X181359343Y-195157200D01*
X181430772Y-195228629D01*
X182716486Y-196585771D02*
X182716486Y-195800057D01*
X182645057Y-195657200D01*
X182502200Y-195585771D01*
X182216486Y-195585771D01*
X182073629Y-195657200D01*
X182716486Y-196514343D02*
X182573629Y-196585771D01*
X182216486Y-196585771D01*
X182073629Y-196514343D01*
X182002200Y-196371486D01*
X182002200Y-196228629D01*
X182073629Y-196085771D01*
X182216486Y-196014343D01*
X182573629Y-196014343D01*
X182716486Y-195942914D01*
X184073629Y-196585771D02*
X184073629Y-195085771D01*
X184073629Y-196514343D02*
X183930772Y-196585771D01*
X183645058Y-196585771D01*
X183502200Y-196514343D01*
X183430772Y-196442914D01*
X183359343Y-196300057D01*
X183359343Y-195871486D01*
X183430772Y-195728629D01*
X183502200Y-195657200D01*
X183645058Y-195585771D01*
X183930772Y-195585771D01*
X184073629Y-195657200D01*
X185930772Y-195800057D02*
X186430772Y-195800057D01*
X186645058Y-196585771D02*
X185930772Y-196585771D01*
X185930772Y-195085771D01*
X186645058Y-195085771D01*
X187287915Y-196442914D02*
X187359343Y-196514343D01*
X187287915Y-196585771D01*
X187216486Y-196514343D01*
X187287915Y-196442914D01*
X187287915Y-196585771D01*
X188002201Y-196585771D02*
X188002201Y-195085771D01*
X188359344Y-195085771D01*
X188573629Y-195157200D01*
X188716487Y-195300057D01*
X188787915Y-195442914D01*
X188859344Y-195728629D01*
X188859344Y-195942914D01*
X188787915Y-196228629D01*
X188716487Y-196371486D01*
X188573629Y-196514343D01*
X188359344Y-196585771D01*
X188002201Y-196585771D01*
X189502201Y-196442914D02*
X189573629Y-196514343D01*
X189502201Y-196585771D01*
X189430772Y-196514343D01*
X189502201Y-196442914D01*
X189502201Y-196585771D01*
X190145058Y-196157200D02*
X190859344Y-196157200D01*
X190002201Y-196585771D02*
X190502201Y-195085771D01*
X191002201Y-196585771D01*
X191502201Y-196442914D02*
X191573629Y-196514343D01*
X191502201Y-196585771D01*
X191430772Y-196514343D01*
X191502201Y-196442914D01*
X191502201Y-196585771D01*
X194502201Y-196585771D02*
X194502201Y-195085771D01*
X194645058Y-196014343D02*
X195073629Y-196585771D01*
X195073629Y-195585771D02*
X194502201Y-196157200D01*
X195716487Y-196585771D02*
X195716487Y-195585771D01*
X195716487Y-195085771D02*
X195645058Y-195157200D01*
X195716487Y-195228629D01*
X195787915Y-195157200D01*
X195716487Y-195085771D01*
X195716487Y-195228629D01*
X197073630Y-196514343D02*
X196930773Y-196585771D01*
X196645059Y-196585771D01*
X196502201Y-196514343D01*
X196430773Y-196442914D01*
X196359344Y-196300057D01*
X196359344Y-195871486D01*
X196430773Y-195728629D01*
X196502201Y-195657200D01*
X196645059Y-195585771D01*
X196930773Y-195585771D01*
X197073630Y-195657200D01*
X198359344Y-196585771D02*
X198359344Y-195800057D01*
X198287915Y-195657200D01*
X198145058Y-195585771D01*
X197859344Y-195585771D01*
X197716487Y-195657200D01*
X198359344Y-196514343D02*
X198216487Y-196585771D01*
X197859344Y-196585771D01*
X197716487Y-196514343D01*
X197645058Y-196371486D01*
X197645058Y-196228629D01*
X197716487Y-196085771D01*
X197859344Y-196014343D01*
X198216487Y-196014343D01*
X198359344Y-195942914D01*
X199716487Y-196585771D02*
X199716487Y-195085771D01*
X199716487Y-196514343D02*
X199573630Y-196585771D01*
X199287916Y-196585771D01*
X199145058Y-196514343D01*
X199073630Y-196442914D01*
X199002201Y-196300057D01*
X199002201Y-195871486D01*
X199073630Y-195728629D01*
X199145058Y-195657200D01*
X199287916Y-195585771D01*
X199573630Y-195585771D01*
X199716487Y-195657200D01*
X201573630Y-195585771D02*
X201573630Y-196585771D01*
X201573630Y-195728629D02*
X201645058Y-195657200D01*
X201787916Y-195585771D01*
X202002201Y-195585771D01*
X202145058Y-195657200D01*
X202216487Y-195800057D01*
X202216487Y-196585771D01*
X203145059Y-196585771D02*
X203002201Y-196514343D01*
X202930773Y-196442914D01*
X202859344Y-196300057D01*
X202859344Y-195871486D01*
X202930773Y-195728629D01*
X203002201Y-195657200D01*
X203145059Y-195585771D01*
X203359344Y-195585771D01*
X203502201Y-195657200D01*
X203573630Y-195728629D01*
X203645059Y-195871486D01*
X203645059Y-196300057D01*
X203573630Y-196442914D01*
X203502201Y-196514343D01*
X203359344Y-196585771D01*
X203145059Y-196585771D01*
X204287916Y-196014343D02*
X205430773Y-196014343D01*
X206002202Y-195585771D02*
X206359345Y-196585771D01*
X206716487Y-195585771D01*
X207930773Y-196514343D02*
X207787916Y-196585771D01*
X207502202Y-196585771D01*
X207359344Y-196514343D01*
X207287916Y-196442914D01*
X207216487Y-196300057D01*
X207216487Y-195871486D01*
X207287916Y-195728629D01*
X207359344Y-195657200D01*
X207502202Y-195585771D01*
X207787916Y-195585771D01*
X207930773Y-195657200D01*
X208502201Y-196514343D02*
X208645058Y-196585771D01*
X208930773Y-196585771D01*
X209073630Y-196514343D01*
X209145058Y-196371486D01*
X209145058Y-196300057D01*
X209073630Y-196157200D01*
X208930773Y-196085771D01*
X208716487Y-196085771D01*
X208573630Y-196014343D01*
X208502201Y-195871486D01*
X208502201Y-195800057D01*
X208573630Y-195657200D01*
X208716487Y-195585771D01*
X208930773Y-195585771D01*
X209073630Y-195657200D01*
X209787916Y-196014343D02*
X210930773Y-196014343D01*
X211430773Y-195585771D02*
X212002202Y-195585771D01*
X211645059Y-196585771D02*
X211645059Y-195300057D01*
X211716487Y-195157200D01*
X211859345Y-195085771D01*
X212002202Y-195085771D01*
X212716488Y-196585771D02*
X212573630Y-196514343D01*
X212502202Y-196442914D01*
X212430773Y-196300057D01*
X212430773Y-195871486D01*
X212502202Y-195728629D01*
X212573630Y-195657200D01*
X212716488Y-195585771D01*
X212930773Y-195585771D01*
X213073630Y-195657200D01*
X213145059Y-195728629D01*
X213216488Y-195871486D01*
X213216488Y-196300057D01*
X213145059Y-196442914D01*
X213073630Y-196514343D01*
X212930773Y-196585771D01*
X212716488Y-196585771D01*
X214502202Y-195585771D02*
X214502202Y-196585771D01*
X213859345Y-195585771D02*
X213859345Y-196371486D01*
X213930773Y-196514343D01*
X214073631Y-196585771D01*
X214287916Y-196585771D01*
X214430773Y-196514343D01*
X214502202Y-196442914D01*
X215216488Y-195585771D02*
X215216488Y-196585771D01*
X215216488Y-195728629D02*
X215287916Y-195657200D01*
X215430774Y-195585771D01*
X215645059Y-195585771D01*
X215787916Y-195657200D01*
X215859345Y-195800057D01*
X215859345Y-196585771D01*
X217216488Y-196585771D02*
X217216488Y-195085771D01*
X217216488Y-196514343D02*
X217073631Y-196585771D01*
X216787917Y-196585771D01*
X216645059Y-196514343D01*
X216573631Y-196442914D01*
X216502202Y-196300057D01*
X216502202Y-195871486D01*
X216573631Y-195728629D01*
X216645059Y-195657200D01*
X216787917Y-195585771D01*
X217073631Y-195585771D01*
X217216488Y-195657200D01*
X217930774Y-196014343D02*
X219073631Y-196014343D01*
X219787917Y-195585771D02*
X219787917Y-197085771D01*
X219787917Y-195657200D02*
X219930774Y-195585771D01*
X220216488Y-195585771D01*
X220359345Y-195657200D01*
X220430774Y-195728629D01*
X220502203Y-195871486D01*
X220502203Y-196300057D01*
X220430774Y-196442914D01*
X220359345Y-196514343D01*
X220216488Y-196585771D01*
X219930774Y-196585771D01*
X219787917Y-196514343D01*
X221145060Y-196585771D02*
X221145060Y-195585771D01*
X221145060Y-195871486D02*
X221216488Y-195728629D01*
X221287917Y-195657200D01*
X221430774Y-195585771D01*
X221573631Y-195585771D01*
X222287917Y-196585771D02*
X222145059Y-196514343D01*
X222073631Y-196442914D01*
X222002202Y-196300057D01*
X222002202Y-195871486D01*
X222073631Y-195728629D01*
X222145059Y-195657200D01*
X222287917Y-195585771D01*
X222502202Y-195585771D01*
X222645059Y-195657200D01*
X222716488Y-195728629D01*
X222787917Y-195871486D01*
X222787917Y-196300057D01*
X222716488Y-196442914D01*
X222645059Y-196514343D01*
X222502202Y-196585771D01*
X222287917Y-196585771D01*
X224073631Y-196585771D02*
X224073631Y-195085771D01*
X224073631Y-196514343D02*
X223930774Y-196585771D01*
X223645060Y-196585771D01*
X223502202Y-196514343D01*
X223430774Y-196442914D01*
X223359345Y-196300057D01*
X223359345Y-195871486D01*
X223430774Y-195728629D01*
X223502202Y-195657200D01*
X223645060Y-195585771D01*
X223930774Y-195585771D01*
X224073631Y-195657200D01*
X225430774Y-195585771D02*
X225430774Y-196585771D01*
X224787917Y-195585771D02*
X224787917Y-196371486D01*
X224859345Y-196514343D01*
X225002203Y-196585771D01*
X225216488Y-196585771D01*
X225359345Y-196514343D01*
X225430774Y-196442914D01*
X226787917Y-196514343D02*
X226645060Y-196585771D01*
X226359346Y-196585771D01*
X226216488Y-196514343D01*
X226145060Y-196442914D01*
X226073631Y-196300057D01*
X226073631Y-195871486D01*
X226145060Y-195728629D01*
X226216488Y-195657200D01*
X226359346Y-195585771D01*
X226645060Y-195585771D01*
X226787917Y-195657200D01*
X227216488Y-195585771D02*
X227787917Y-195585771D01*
X227430774Y-195085771D02*
X227430774Y-196371486D01*
X227502202Y-196514343D01*
X227645060Y-196585771D01*
X227787917Y-196585771D01*
D10*
D11*
X177002200Y-191507200D02*
X285002200Y-191507200D01*
D10*
D12*
X264216486Y-193785771D02*
X263716486Y-193071486D01*
X263359343Y-193785771D02*
X263359343Y-192285771D01*
X263930771Y-192285771D01*
X264073629Y-192357200D01*
X264145057Y-192428629D01*
X264216486Y-192571486D01*
X264216486Y-192785771D01*
X264145057Y-192928629D01*
X264073629Y-193000057D01*
X263930771Y-193071486D01*
X263359343Y-193071486D01*
X265430771Y-193714343D02*
X265287914Y-193785771D01*
X265002200Y-193785771D01*
X264859343Y-193714343D01*
X264787914Y-193571486D01*
X264787914Y-193000057D01*
X264859343Y-192857200D01*
X265002200Y-192785771D01*
X265287914Y-192785771D01*
X265430771Y-192857200D01*
X265502200Y-193000057D01*
X265502200Y-193142914D01*
X264787914Y-193285771D01*
X266002200Y-192785771D02*
X266359343Y-193785771D01*
X266716485Y-192785771D01*
X267287914Y-193642914D02*
X267359342Y-193714343D01*
X267287914Y-193785771D01*
X267216485Y-193714343D01*
X267287914Y-193642914D01*
X267287914Y-193785771D01*
X267287914Y-192857200D02*
X267359342Y-192928629D01*
X267287914Y-193000057D01*
X267216485Y-192928629D01*
X267287914Y-192857200D01*
X267287914Y-193000057D01*
D10*
D11*
X178287914Y-193714343D02*
X178502200Y-193785771D01*
X178859343Y-193785771D01*
X179002200Y-193714343D01*
X179073629Y-193642914D01*
X179145057Y-193500057D01*
X179145057Y-193357200D01*
X179073629Y-193214343D01*
X179002200Y-193142914D01*
X178859343Y-193071486D01*
X178573629Y-193000057D01*
X178430771Y-192928629D01*
X178359343Y-192857200D01*
X178287914Y-192714343D01*
X178287914Y-192571486D01*
X178359343Y-192428629D01*
X178430771Y-192357200D01*
X178573629Y-192285771D01*
X178930771Y-192285771D01*
X179145057Y-192357200D01*
X179787914Y-193785771D02*
X179787914Y-192785771D01*
X179787914Y-192285771D02*
X179716485Y-192357200D01*
X179787914Y-192428629D01*
X179859342Y-192357200D01*
X179787914Y-192285771D01*
X179787914Y-192428629D01*
X180359343Y-192785771D02*
X181145057Y-192785771D01*
X180359343Y-193785771D01*
X181145057Y-193785771D01*
X182287914Y-193714343D02*
X182145057Y-193785771D01*
X181859343Y-193785771D01*
X181716486Y-193714343D01*
X181645057Y-193571486D01*
X181645057Y-193000057D01*
X181716486Y-192857200D01*
X181859343Y-192785771D01*
X182145057Y-192785771D01*
X182287914Y-192857200D01*
X182359343Y-193000057D01*
X182359343Y-193142914D01*
X181645057Y-193285771D01*
X183002200Y-193642914D02*
X183073628Y-193714343D01*
X183002200Y-193785771D01*
X182930771Y-193714343D01*
X183002200Y-193642914D01*
X183002200Y-193785771D01*
X183002200Y-192857200D02*
X183073628Y-192928629D01*
X183002200Y-193000057D01*
X182930771Y-192928629D01*
X183002200Y-192857200D01*
X183002200Y-193000057D01*
X184787914Y-193357200D02*
X185502200Y-193357200D01*
X184645057Y-193785771D02*
X185145057Y-192285771D01*
X185645057Y-193785771D01*
X186787914Y-192785771D02*
X186787914Y-193785771D01*
X186430771Y-192214343D02*
X186073628Y-193285771D01*
X187002200Y-193285771D01*
D10*
D11*
X263359343Y-196585771D02*
X263359343Y-195085771D01*
X264716486Y-196585771D02*
X264716486Y-195085771D01*
X264716486Y-196514343D02*
X264573629Y-196585771D01*
X264287915Y-196585771D01*
X264145057Y-196514343D01*
X264073629Y-196442914D01*
X264002200Y-196300057D01*
X264002200Y-195871486D01*
X264073629Y-195728629D01*
X264145057Y-195657200D01*
X264287915Y-195585771D01*
X264573629Y-195585771D01*
X264716486Y-195657200D01*
X265430772Y-196442914D02*
X265502200Y-196514343D01*
X265430772Y-196585771D01*
X265359343Y-196514343D01*
X265430772Y-196442914D01*
X265430772Y-196585771D01*
X265430772Y-195657200D02*
X265502200Y-195728629D01*
X265430772Y-195800057D01*
X265359343Y-195728629D01*
X265430772Y-195657200D01*
X265430772Y-195800057D01*
X268073629Y-196585771D02*
X267216486Y-196585771D01*
X267645058Y-196585771D02*
X267645058Y-195085771D01*
X267502201Y-195300057D01*
X267359343Y-195442914D01*
X267216486Y-195514343D01*
X269787914Y-195014343D02*
X268502200Y-196942914D01*
X271073629Y-196585771D02*
X270216486Y-196585771D01*
X270645058Y-196585771D02*
X270645058Y-195085771D01*
X270502201Y-195300057D01*
X270359343Y-195442914D01*
X270216486Y-195514343D01*
D10*
D11*
X177002200Y-187507200D02*
X285002200Y-187507200D01*
D10*
D13*
X178454581Y-188211962D02*
X179597438Y-188211962D01*
X178776010Y-190211962D02*
X179026010Y-188211962D01*
X180014105Y-190211962D02*
X180180771Y-188878629D01*
X180264105Y-188211962D02*
X180156962Y-188307200D01*
X180240295Y-188402438D01*
X180347439Y-188307200D01*
X180264105Y-188211962D01*
X180240295Y-188402438D01*
X180847438Y-188878629D02*
X181609343Y-188878629D01*
X181216486Y-188211962D02*
X181002200Y-189926248D01*
X181073630Y-190116724D01*
X181252201Y-190211962D01*
X181442677Y-190211962D01*
X182395058Y-190211962D02*
X182216487Y-190116724D01*
X182145057Y-189926248D01*
X182359343Y-188211962D01*
X183930772Y-190116724D02*
X183728391Y-190211962D01*
X183347439Y-190211962D01*
X183168867Y-190116724D01*
X183097438Y-189926248D01*
X183192676Y-189164343D01*
X183311724Y-188973867D01*
X183514105Y-188878629D01*
X183895057Y-188878629D01*
X184073629Y-188973867D01*
X184145057Y-189164343D01*
X184121248Y-189354819D01*
X183145057Y-189545295D01*
X184895057Y-190021486D02*
X184978392Y-190116724D01*
X184871248Y-190211962D01*
X184787915Y-190116724D01*
X184895057Y-190021486D01*
X184871248Y-190211962D01*
X185026010Y-188973867D02*
X185109344Y-189069105D01*
X185002200Y-189164343D01*
X184918867Y-189069105D01*
X185026010Y-188973867D01*
X185002200Y-189164343D01*
X187264106Y-190116724D02*
X187537916Y-190211962D01*
X188014106Y-190211962D01*
X188216487Y-190116724D01*
X188323629Y-190021486D01*
X188442678Y-189831010D01*
X188466487Y-189640533D01*
X188395058Y-189450057D01*
X188311725Y-189354819D01*
X188133153Y-189259581D01*
X187764106Y-189164343D01*
X187585535Y-189069105D01*
X187502201Y-188973867D01*
X187430772Y-188783390D01*
X187454582Y-188592914D01*
X187573629Y-188402438D01*
X187680773Y-188307200D01*
X187883154Y-188211962D01*
X188359344Y-188211962D01*
X188633154Y-188307200D01*
X189133153Y-188878629D02*
X189895058Y-188878629D01*
X189502201Y-188211962D02*
X189287915Y-189926248D01*
X189359345Y-190116724D01*
X189537916Y-190211962D01*
X189728392Y-190211962D01*
X191168868Y-190116724D02*
X190966487Y-190211962D01*
X190585535Y-190211962D01*
X190406963Y-190116724D01*
X190335534Y-189926248D01*
X190430772Y-189164343D01*
X190549820Y-188973867D01*
X190752201Y-188878629D01*
X191133153Y-188878629D01*
X191311725Y-188973867D01*
X191383153Y-189164343D01*
X191359344Y-189354819D01*
X190383153Y-189545295D01*
X192276010Y-188878629D02*
X192026010Y-190878629D01*
X192264106Y-188973867D02*
X192466487Y-188878629D01*
X192847439Y-188878629D01*
X193026011Y-188973867D01*
X193109344Y-189069105D01*
X193180772Y-189259581D01*
X193109344Y-189831010D01*
X192990296Y-190021486D01*
X192883154Y-190116724D01*
X192680773Y-190211962D01*
X192299821Y-190211962D01*
X192121249Y-190116724D01*
X194014106Y-189450057D02*
X195537916Y-189450057D01*
X196645058Y-188211962D02*
X196442677Y-189831010D01*
X196514106Y-190021486D01*
X196597440Y-190116724D01*
X196776011Y-190211962D01*
X197156963Y-190211962D01*
X197359344Y-190116724D01*
X197466487Y-190021486D01*
X197585535Y-189831010D01*
X197787916Y-188211962D01*
X198656962Y-188878629D02*
X198406962Y-190878629D01*
X198645058Y-188973867D02*
X198847439Y-188878629D01*
X199228391Y-188878629D01*
X199406963Y-188973867D01*
X199490296Y-189069105D01*
X199561724Y-189259581D01*
X199490296Y-189831010D01*
X199371248Y-190021486D01*
X199264106Y-190116724D01*
X199061725Y-190211962D01*
X198680773Y-190211962D01*
X198502201Y-190116724D01*
X201740297Y-190116724D02*
X202014107Y-190211962D01*
X202490297Y-190211962D01*
X202692678Y-190116724D01*
X202799820Y-190021486D01*
X202918869Y-189831010D01*
X202942678Y-189640533D01*
X202871249Y-189450057D01*
X202787916Y-189354819D01*
X202609344Y-189259581D01*
X202240297Y-189164343D01*
X202061726Y-189069105D01*
X201978392Y-188973867D01*
X201906963Y-188783390D01*
X201930773Y-188592914D01*
X202049820Y-188402438D01*
X202156964Y-188307200D01*
X202359345Y-188211962D01*
X202835535Y-188211962D01*
X203109345Y-188307200D01*
X203609344Y-188878629D02*
X204371249Y-188878629D01*
X203978392Y-188211962D02*
X203764106Y-189926248D01*
X203835536Y-190116724D01*
X204014107Y-190211962D01*
X204204583Y-190211962D01*
X205728392Y-190211962D02*
X205859344Y-189164343D01*
X205787916Y-188973867D01*
X205609344Y-188878629D01*
X205228392Y-188878629D01*
X205026011Y-188973867D01*
X205740297Y-190116724D02*
X205537916Y-190211962D01*
X205061726Y-190211962D01*
X204883154Y-190116724D01*
X204811725Y-189926248D01*
X204835535Y-189735771D01*
X204954582Y-189545295D01*
X205156964Y-189450057D01*
X205633154Y-189450057D01*
X205835535Y-189354819D01*
X206680773Y-190211962D02*
X206930773Y-188211962D01*
X206835535Y-188973867D02*
X207037916Y-188878629D01*
X207418868Y-188878629D01*
X207597440Y-188973867D01*
X207680773Y-189069105D01*
X207752201Y-189259581D01*
X207680773Y-189831010D01*
X207561725Y-190021486D01*
X207454583Y-190116724D01*
X207252202Y-190211962D01*
X206871250Y-190211962D01*
X206692678Y-190116724D01*
X208490297Y-190211962D02*
X208656963Y-188878629D01*
X208740297Y-188211962D02*
X208633154Y-188307200D01*
X208716487Y-188402438D01*
X208823631Y-188307200D01*
X208740297Y-188211962D01*
X208716487Y-188402438D01*
X209728393Y-190211962D02*
X209549822Y-190116724D01*
X209478392Y-189926248D01*
X209692678Y-188211962D01*
X210490297Y-190211962D02*
X210656963Y-188878629D01*
X210740297Y-188211962D02*
X210633154Y-188307200D01*
X210716487Y-188402438D01*
X210823631Y-188307200D01*
X210740297Y-188211962D01*
X210716487Y-188402438D01*
X211418868Y-188878629D02*
X212466487Y-188878629D01*
X211252202Y-190211962D01*
X212299821Y-190211962D01*
X213835536Y-190116724D02*
X213633155Y-190211962D01*
X213252203Y-190211962D01*
X213073631Y-190116724D01*
X213002202Y-189926248D01*
X213097440Y-189164343D01*
X213216488Y-188973867D01*
X213418869Y-188878629D01*
X213799821Y-188878629D01*
X213978393Y-188973867D01*
X214049821Y-189164343D01*
X214026012Y-189354819D01*
X213049821Y-189545295D01*
X214776012Y-190211962D02*
X214942678Y-188878629D01*
X214895059Y-189259581D02*
X215014108Y-189069105D01*
X215121251Y-188973867D01*
X215323631Y-188878629D01*
X215514107Y-188878629D01*
D10*
D11*
X178859343Y-185600057D02*
X178359343Y-185600057D01*
X178359343Y-186385771D02*
X178359343Y-184885771D01*
X179073629Y-184885771D01*
X179645057Y-186385771D02*
X179645057Y-185385771D01*
X179645057Y-184885771D02*
X179573628Y-184957200D01*
X179645057Y-185028629D01*
X179716485Y-184957200D01*
X179645057Y-184885771D01*
X179645057Y-185028629D01*
X180573629Y-186385771D02*
X180430771Y-186314343D01*
X180359343Y-186171486D01*
X180359343Y-184885771D01*
X181716485Y-186314343D02*
X181573628Y-186385771D01*
X181287914Y-186385771D01*
X181145057Y-186314343D01*
X181073628Y-186171486D01*
X181073628Y-185600057D01*
X181145057Y-185457200D01*
X181287914Y-185385771D01*
X181573628Y-185385771D01*
X181716485Y-185457200D01*
X181787914Y-185600057D01*
X181787914Y-185742914D01*
X181073628Y-185885771D01*
X182430771Y-186242914D02*
X182502199Y-186314343D01*
X182430771Y-186385771D01*
X182359342Y-186314343D01*
X182430771Y-186242914D01*
X182430771Y-186385771D01*
X182430771Y-185457200D02*
X182502199Y-185528629D01*
X182430771Y-185600057D01*
X182359342Y-185528629D01*
X182430771Y-185457200D01*
X182430771Y-185600057D01*
X184287914Y-186385771D02*
X184287914Y-185385771D01*
X184287914Y-184885771D02*
X184216485Y-184957200D01*
X184287914Y-185028629D01*
X184359342Y-184957200D01*
X184287914Y-184885771D01*
X184287914Y-185028629D01*
X185002200Y-185385771D02*
X185002200Y-186385771D01*
X185002200Y-185528629D02*
X185073628Y-185457200D01*
X185216486Y-185385771D01*
X185430771Y-185385771D01*
X185573628Y-185457200D01*
X185645057Y-185600057D01*
X185645057Y-186385771D01*
X186216486Y-185385771D02*
X186573629Y-186385771D01*
X186930771Y-185385771D01*
X188073628Y-186314343D02*
X187930771Y-186385771D01*
X187645057Y-186385771D01*
X187502200Y-186314343D01*
X187430771Y-186171486D01*
X187430771Y-185600057D01*
X187502200Y-185457200D01*
X187645057Y-185385771D01*
X187930771Y-185385771D01*
X188073628Y-185457200D01*
X188145057Y-185600057D01*
X188145057Y-185742914D01*
X187430771Y-185885771D01*
X188787914Y-186385771D02*
X188787914Y-185385771D01*
X188787914Y-185671486D02*
X188859342Y-185528629D01*
X188930771Y-185457200D01*
X189073628Y-185385771D01*
X189216485Y-185385771D01*
X189502199Y-185385771D02*
X190073628Y-185385771D01*
X189716485Y-184885771D02*
X189716485Y-186171486D01*
X189787913Y-186314343D01*
X189930771Y-186385771D01*
X190073628Y-186385771D01*
X191145056Y-186314343D02*
X191002199Y-186385771D01*
X190716485Y-186385771D01*
X190573628Y-186314343D01*
X190502199Y-186171486D01*
X190502199Y-185600057D01*
X190573628Y-185457200D01*
X190716485Y-185385771D01*
X191002199Y-185385771D01*
X191145056Y-185457200D01*
X191216485Y-185600057D01*
X191216485Y-185742914D01*
X190502199Y-185885771D01*
X191859342Y-186385771D02*
X191859342Y-185385771D01*
X191859342Y-185671486D02*
X191930770Y-185528629D01*
X192002199Y-185457200D01*
X192145056Y-185385771D01*
X192287913Y-185385771D01*
X192787913Y-186242914D02*
X192859341Y-186314343D01*
X192787913Y-186385771D01*
X192716484Y-186314343D01*
X192787913Y-186242914D01*
X192787913Y-186385771D01*
X193502199Y-186385771D02*
X193502199Y-184885771D01*
X193645056Y-185814343D02*
X194073627Y-186385771D01*
X194073627Y-185385771D02*
X193502199Y-185957200D01*
X194716485Y-186385771D02*
X194716485Y-185385771D01*
X194716485Y-184885771D02*
X194645056Y-184957200D01*
X194716485Y-185028629D01*
X194787913Y-184957200D01*
X194716485Y-184885771D01*
X194716485Y-185028629D01*
X196073628Y-186314343D02*
X195930771Y-186385771D01*
X195645057Y-186385771D01*
X195502199Y-186314343D01*
X195430771Y-186242914D01*
X195359342Y-186100057D01*
X195359342Y-185671486D01*
X195430771Y-185528629D01*
X195502199Y-185457200D01*
X195645057Y-185385771D01*
X195930771Y-185385771D01*
X196073628Y-185457200D01*
X197359342Y-186385771D02*
X197359342Y-185600057D01*
X197287913Y-185457200D01*
X197145056Y-185385771D01*
X196859342Y-185385771D01*
X196716485Y-185457200D01*
X197359342Y-186314343D02*
X197216485Y-186385771D01*
X196859342Y-186385771D01*
X196716485Y-186314343D01*
X196645056Y-186171486D01*
X196645056Y-186028629D01*
X196716485Y-185885771D01*
X196859342Y-185814343D01*
X197216485Y-185814343D01*
X197359342Y-185742914D01*
X198716485Y-186385771D02*
X198716485Y-184885771D01*
X198716485Y-186314343D02*
X198573628Y-186385771D01*
X198287914Y-186385771D01*
X198145056Y-186314343D01*
X198073628Y-186242914D01*
X198002199Y-186100057D01*
X198002199Y-185671486D01*
X198073628Y-185528629D01*
X198145056Y-185457200D01*
X198287914Y-185385771D01*
X198573628Y-185385771D01*
X198716485Y-185457200D01*
X199073628Y-186528629D02*
X200216485Y-186528629D01*
X200573628Y-185385771D02*
X200573628Y-186885771D01*
X200573628Y-185457200D02*
X200716485Y-185385771D01*
X201002199Y-185385771D01*
X201145056Y-185457200D01*
X201216485Y-185528629D01*
X201287914Y-185671486D01*
X201287914Y-186100057D01*
X201216485Y-186242914D01*
X201145056Y-186314343D01*
X201002199Y-186385771D01*
X200716485Y-186385771D01*
X200573628Y-186314343D01*
X202573628Y-186314343D02*
X202430771Y-186385771D01*
X202145057Y-186385771D01*
X202002199Y-186314343D01*
X201930771Y-186242914D01*
X201859342Y-186100057D01*
X201859342Y-185671486D01*
X201930771Y-185528629D01*
X202002199Y-185457200D01*
X202145057Y-185385771D01*
X202430771Y-185385771D01*
X202573628Y-185457200D01*
X203216485Y-186385771D02*
X203216485Y-184885771D01*
X203216485Y-185457200D02*
X203359342Y-185385771D01*
X203645056Y-185385771D01*
X203787913Y-185457200D01*
X203859342Y-185528629D01*
X203930771Y-185671486D01*
X203930771Y-186100057D01*
X203859342Y-186242914D01*
X203787913Y-186314343D01*
X203645056Y-186385771D01*
X203359342Y-186385771D01*
X203216485Y-186314343D01*
D10*
D11*
X177002200Y-181507200D02*
X285002200Y-181507200D01*
D10*
D11*
X178287914Y-183614343D02*
X178502200Y-183685771D01*
X178859343Y-183685771D01*
X179002200Y-183614343D01*
X179073629Y-183542914D01*
X179145057Y-183400057D01*
X179145057Y-183257200D01*
X179073629Y-183114343D01*
X179002200Y-183042914D01*
X178859343Y-182971486D01*
X178573629Y-182900057D01*
X178430771Y-182828629D01*
X178359343Y-182757200D01*
X178287914Y-182614343D01*
X178287914Y-182471486D01*
X178359343Y-182328629D01*
X178430771Y-182257200D01*
X178573629Y-182185771D01*
X178930771Y-182185771D01*
X179145057Y-182257200D01*
X179787914Y-183685771D02*
X179787914Y-182185771D01*
X180430771Y-183685771D02*
X180430771Y-182900057D01*
X180359342Y-182757200D01*
X180216485Y-182685771D01*
X180002200Y-182685771D01*
X179859342Y-182757200D01*
X179787914Y-182828629D01*
X181716485Y-183614343D02*
X181573628Y-183685771D01*
X181287914Y-183685771D01*
X181145057Y-183614343D01*
X181073628Y-183471486D01*
X181073628Y-182900057D01*
X181145057Y-182757200D01*
X181287914Y-182685771D01*
X181573628Y-182685771D01*
X181716485Y-182757200D01*
X181787914Y-182900057D01*
X181787914Y-183042914D01*
X181073628Y-183185771D01*
X183002199Y-183614343D02*
X182859342Y-183685771D01*
X182573628Y-183685771D01*
X182430771Y-183614343D01*
X182359342Y-183471486D01*
X182359342Y-182900057D01*
X182430771Y-182757200D01*
X182573628Y-182685771D01*
X182859342Y-182685771D01*
X183002199Y-182757200D01*
X183073628Y-182900057D01*
X183073628Y-183042914D01*
X182359342Y-183185771D01*
X183502199Y-182685771D02*
X184073628Y-182685771D01*
X183716485Y-182185771D02*
X183716485Y-183471486D01*
X183787913Y-183614343D01*
X183930771Y-183685771D01*
X184073628Y-183685771D01*
X184573628Y-183542914D02*
X184645056Y-183614343D01*
X184573628Y-183685771D01*
X184502199Y-183614343D01*
X184573628Y-183542914D01*
X184573628Y-183685771D01*
X184573628Y-182757200D02*
X184645056Y-182828629D01*
X184573628Y-182900057D01*
X184502199Y-182828629D01*
X184573628Y-182757200D01*
X184573628Y-182900057D01*
D10*
D12*
X179073629Y-180685771D02*
X178359343Y-180685771D01*
X178359343Y-179185771D01*
X180073629Y-179900057D02*
X179573629Y-179900057D01*
X179573629Y-180685771D02*
X179573629Y-179185771D01*
X180287915Y-179185771D01*
X180787914Y-180257200D02*
X181502200Y-180257200D01*
X180645057Y-180685771D02*
X181145057Y-179185771D01*
X181645057Y-180685771D01*
D10*
D11*
X178359343Y-174685771D02*
X178359343Y-173185771D01*
X178930772Y-173685771D02*
X179287915Y-174685771D01*
X179645057Y-173685771D01*
X180859343Y-174685771D02*
X180859343Y-173900057D01*
X180787914Y-173757200D01*
X180645057Y-173685771D01*
X180359343Y-173685771D01*
X180216486Y-173757200D01*
X180859343Y-174614343D02*
X180716486Y-174685771D01*
X180359343Y-174685771D01*
X180216486Y-174614343D01*
X180145057Y-174471486D01*
X180145057Y-174328629D01*
X180216486Y-174185771D01*
X180359343Y-174114343D01*
X180716486Y-174114343D01*
X180859343Y-174042914D01*
X181573629Y-173685771D02*
X181573629Y-174685771D01*
X181573629Y-173828629D02*
X181645057Y-173757200D01*
X181787915Y-173685771D01*
X182002200Y-173685771D01*
X182145057Y-173757200D01*
X182216486Y-173900057D01*
X182216486Y-174685771D01*
X183145058Y-174685771D02*
X183002200Y-174614343D01*
X182930772Y-174542914D01*
X182859343Y-174400057D01*
X182859343Y-173971486D01*
X182930772Y-173828629D01*
X183002200Y-173757200D01*
X183145058Y-173685771D01*
X183359343Y-173685771D01*
X183502200Y-173757200D01*
X183573629Y-173828629D01*
X183645058Y-173971486D01*
X183645058Y-174400057D01*
X183573629Y-174542914D01*
X183502200Y-174614343D01*
X183359343Y-174685771D01*
X183145058Y-174685771D01*
X184145058Y-173685771D02*
X184502201Y-174685771D01*
X184859343Y-173685771D01*
X186502200Y-174257200D02*
X187216486Y-174257200D01*
X186359343Y-174685771D02*
X186859343Y-173185771D01*
X187359343Y-174685771D01*
X187859343Y-173685771D02*
X187859343Y-174685771D01*
X187859343Y-173828629D02*
X187930771Y-173757200D01*
X188073629Y-173685771D01*
X188287914Y-173685771D01*
X188430771Y-173757200D01*
X188502200Y-173900057D01*
X188502200Y-174685771D01*
X189859343Y-174685771D02*
X189859343Y-173185771D01*
X189859343Y-174614343D02*
X189716486Y-174685771D01*
X189430772Y-174685771D01*
X189287914Y-174614343D01*
X189216486Y-174542914D01*
X189145057Y-174400057D01*
X189145057Y-173971486D01*
X189216486Y-173828629D01*
X189287914Y-173757200D01*
X189430772Y-173685771D01*
X189716486Y-173685771D01*
X189859343Y-173757200D01*
X190573629Y-174685771D02*
X190573629Y-173685771D01*
X190573629Y-173971486D02*
X190645057Y-173828629D01*
X190716486Y-173757200D01*
X190859343Y-173685771D01*
X191002200Y-173685771D01*
X192073628Y-174614343D02*
X191930771Y-174685771D01*
X191645057Y-174685771D01*
X191502200Y-174614343D01*
X191430771Y-174471486D01*
X191430771Y-173900057D01*
X191502200Y-173757200D01*
X191645057Y-173685771D01*
X191930771Y-173685771D01*
X192073628Y-173757200D01*
X192145057Y-173900057D01*
X192145057Y-174042914D01*
X191430771Y-174185771D01*
X192645057Y-173685771D02*
X192930771Y-174685771D01*
X193216485Y-173971486D01*
X193502200Y-174685771D01*
X193787914Y-173685771D01*
D10*
D11*
X197002200Y-191507200D02*
X197002200Y-194507200D01*
D10*
D11*
X261002200Y-191507200D02*
X261002200Y-198007200D01*
X197200000Y-78350000D02*
X191275000Y-78350000D01*
X197200000Y-129150000D02*
X197200000Y-78350000D01*
X145575000Y-129150000D02*
X197200000Y-129150000D01*
X145550000Y-129150000D02*
X145550000Y-78350000D01*
X145550000Y-78350000D02*
X191300000Y-78350000D01*
M02*
