%FSLAX45Y45*%
G04 Gerber Fmt 4.5, Leading zero omitted, Abs format (unit mm)*
G04 Created by KiCad (PCBNEW no-vcs-found-product) date Вт 05 июл 2016 14:43:38*
%MOMM*%
G01*
G04 APERTURE LIST*
%ADD10C,0.127000*%
%ADD11C,0.150000*%
%ADD12C,0.200000*%
%ADD13C,0.300000*%
G04 APERTURE END LIST*
D10*
D11*
X19720000Y-7835000D02*
X19127500Y-7835000D01*
X19720000Y-12915000D02*
X19720000Y-7835000D01*
X14557500Y-12915000D02*
X19720000Y-12915000D01*
X14555000Y-12915000D02*
X14555000Y-7835000D01*
X14555000Y-7835000D02*
X19130000Y-7835000D01*
D12*
X15300000Y-9180000D02*
X15380000Y-9260000D01*
X15380000Y-9180000D02*
X15300000Y-9260000D01*
X15300000Y-9680000D02*
X15380000Y-9760000D01*
X15380000Y-9680000D02*
X15300000Y-9760000D01*
X15652500Y-10332500D02*
G75*
G03X15652500Y-10332500I-45000J0D01*
G01*
X15652500Y-10832500D02*
G75*
G03X15652500Y-10832500I-45000J0D01*
G01*
X16275000Y-9682500D02*
G75*
G03X16275000Y-9682500I-45000J0D01*
G01*
X16775000Y-9682500D02*
G75*
G03X16775000Y-9682500I-45000J0D01*
G01*
X16020000Y-10013962D02*
X16020000Y-10114038D01*
X15969962Y-10064000D02*
X16070038Y-10064000D01*
X16020000Y-11029962D02*
X16020000Y-11130038D01*
X15969962Y-11080000D02*
X16070038Y-11080000D01*
X16131000Y-8727462D02*
X16131000Y-8827538D01*
X16080962Y-8777500D02*
X16181038Y-8777500D01*
X16320000Y-10009962D02*
X16320000Y-10110038D01*
X16269962Y-10060000D02*
X16370038Y-10060000D01*
X16320000Y-11025962D02*
X16320000Y-11126038D01*
X16269962Y-11076000D02*
X16370038Y-11076000D01*
X16385000Y-8727462D02*
X16385000Y-8827538D01*
X16334962Y-8777500D02*
X16435038Y-8777500D01*
X16625000Y-10013962D02*
X16625000Y-10114038D01*
X16574962Y-10064000D02*
X16675038Y-10064000D01*
X16625000Y-11029962D02*
X16625000Y-11130038D01*
X16574962Y-11080000D02*
X16675038Y-11080000D01*
X16639000Y-8727462D02*
X16639000Y-8827538D01*
X16588962Y-8777500D02*
X16689038Y-8777500D01*
X17371000Y-9788962D02*
X17371000Y-9889038D01*
X17320962Y-9839000D02*
X17421038Y-9839000D01*
X18133000Y-9788962D02*
X18133000Y-9889038D01*
X18082962Y-9839000D02*
X18183038Y-9839000D01*
X16051307Y-11856329D02*
X16051307Y-11778559D01*
X15973537Y-11778559D01*
X15973537Y-11856329D01*
X16051307Y-11856329D01*
X16241299Y-11856329D02*
X16241299Y-11778559D01*
X16163529Y-11778559D01*
X16163529Y-11856329D01*
X16241299Y-11856329D01*
X16421385Y-11856329D02*
X16421385Y-11778559D01*
X16343615Y-11778559D01*
X16343615Y-11856329D01*
X16421385Y-11856329D01*
X16601471Y-11856329D02*
X16601471Y-11778559D01*
X16523701Y-11778559D01*
X16523701Y-11856329D01*
X16601471Y-11856329D01*
X16791463Y-11856329D02*
X16791463Y-11778559D01*
X16713693Y-11778559D01*
X16713693Y-11856329D01*
X16791463Y-11856329D01*
X19100000Y-10122200D02*
X19176200Y-10046000D01*
X19100000Y-9969800D01*
X19023800Y-10046000D01*
X19100000Y-10122200D01*
X19100000Y-10630200D02*
X19176200Y-10554000D01*
X19100000Y-10477800D01*
X19023800Y-10554000D01*
X19100000Y-10630200D01*
X19100000Y-11322200D02*
X19176200Y-11246000D01*
X19100000Y-11169800D01*
X19023800Y-11246000D01*
X19100000Y-11322200D01*
X19100000Y-11830200D02*
X19176200Y-11754000D01*
X19100000Y-11677800D01*
X19023800Y-11754000D01*
X19100000Y-11830200D01*
D13*
X14818928Y-13388214D02*
X14818928Y-13088214D01*
X14890357Y-13088214D01*
X14933214Y-13102500D01*
X14961786Y-13131071D01*
X14976071Y-13159643D01*
X14990357Y-13216786D01*
X14990357Y-13259643D01*
X14976071Y-13316786D01*
X14961786Y-13345357D01*
X14933214Y-13373929D01*
X14890357Y-13388214D01*
X14818928Y-13388214D01*
X15118928Y-13388214D02*
X15118928Y-13188214D01*
X15118928Y-13245357D02*
X15133214Y-13216786D01*
X15147500Y-13202500D01*
X15176071Y-13188214D01*
X15204643Y-13188214D01*
X15304643Y-13388214D02*
X15304643Y-13188214D01*
X15304643Y-13088214D02*
X15290357Y-13102500D01*
X15304643Y-13116786D01*
X15318928Y-13102500D01*
X15304643Y-13088214D01*
X15304643Y-13116786D01*
X15490357Y-13388214D02*
X15461786Y-13373929D01*
X15447500Y-13345357D01*
X15447500Y-13088214D01*
X15647500Y-13388214D02*
X15618928Y-13373929D01*
X15604643Y-13345357D01*
X15604643Y-13088214D01*
X15990357Y-13388214D02*
X15990357Y-13088214D01*
X16090357Y-13302500D01*
X16190357Y-13088214D01*
X16190357Y-13388214D01*
X16461786Y-13388214D02*
X16461786Y-13231071D01*
X16447500Y-13202500D01*
X16418928Y-13188214D01*
X16361786Y-13188214D01*
X16333214Y-13202500D01*
X16461786Y-13373929D02*
X16433214Y-13388214D01*
X16361786Y-13388214D01*
X16333214Y-13373929D01*
X16318928Y-13345357D01*
X16318928Y-13316786D01*
X16333214Y-13288214D01*
X16361786Y-13273929D01*
X16433214Y-13273929D01*
X16461786Y-13259643D01*
X16604643Y-13188214D02*
X16604643Y-13488214D01*
X16604643Y-13202500D02*
X16633214Y-13188214D01*
X16690357Y-13188214D01*
X16718928Y-13202500D01*
X16733214Y-13216786D01*
X16747500Y-13245357D01*
X16747500Y-13331071D01*
X16733214Y-13359643D01*
X16718928Y-13373929D01*
X16690357Y-13388214D01*
X16633214Y-13388214D01*
X16604643Y-13373929D01*
X16876071Y-13359643D02*
X16890357Y-13373929D01*
X16876071Y-13388214D01*
X16861786Y-13373929D01*
X16876071Y-13359643D01*
X16876071Y-13388214D01*
X16876071Y-13202500D02*
X16890357Y-13216786D01*
X16876071Y-13231071D01*
X16861786Y-13216786D01*
X16876071Y-13202500D01*
X16876071Y-13231071D01*
X14467500Y-13842500D02*
X14547500Y-13922500D01*
X14547500Y-13842500D02*
X14467500Y-13922500D01*
X14876071Y-13718214D02*
X14904643Y-13718214D01*
X14933214Y-13732500D01*
X14947500Y-13746786D01*
X14961786Y-13775357D01*
X14976071Y-13832500D01*
X14976071Y-13903929D01*
X14961786Y-13961071D01*
X14947500Y-13989643D01*
X14933214Y-14003929D01*
X14904643Y-14018214D01*
X14876071Y-14018214D01*
X14847500Y-14003929D01*
X14833214Y-13989643D01*
X14818928Y-13961071D01*
X14804643Y-13903929D01*
X14804643Y-13832500D01*
X14818928Y-13775357D01*
X14833214Y-13746786D01*
X14847500Y-13732500D01*
X14876071Y-13718214D01*
X15104643Y-13989643D02*
X15118928Y-14003929D01*
X15104643Y-14018214D01*
X15090357Y-14003929D01*
X15104643Y-13989643D01*
X15104643Y-14018214D01*
X15290357Y-13846786D02*
X15261786Y-13832500D01*
X15247500Y-13818214D01*
X15233214Y-13789643D01*
X15233214Y-13775357D01*
X15247500Y-13746786D01*
X15261786Y-13732500D01*
X15290357Y-13718214D01*
X15347500Y-13718214D01*
X15376071Y-13732500D01*
X15390357Y-13746786D01*
X15404643Y-13775357D01*
X15404643Y-13789643D01*
X15390357Y-13818214D01*
X15376071Y-13832500D01*
X15347500Y-13846786D01*
X15290357Y-13846786D01*
X15261786Y-13861071D01*
X15247500Y-13875357D01*
X15233214Y-13903929D01*
X15233214Y-13961071D01*
X15247500Y-13989643D01*
X15261786Y-14003929D01*
X15290357Y-14018214D01*
X15347500Y-14018214D01*
X15376071Y-14003929D01*
X15390357Y-13989643D01*
X15404643Y-13961071D01*
X15404643Y-13903929D01*
X15390357Y-13875357D01*
X15376071Y-13861071D01*
X15347500Y-13846786D01*
X15590357Y-13718214D02*
X15618928Y-13718214D01*
X15647500Y-13732500D01*
X15661786Y-13746786D01*
X15676071Y-13775357D01*
X15690357Y-13832500D01*
X15690357Y-13903929D01*
X15676071Y-13961071D01*
X15661786Y-13989643D01*
X15647500Y-14003929D01*
X15618928Y-14018214D01*
X15590357Y-14018214D01*
X15561786Y-14003929D01*
X15547500Y-13989643D01*
X15533214Y-13961071D01*
X15518928Y-13903929D01*
X15518928Y-13832500D01*
X15533214Y-13775357D01*
X15547500Y-13746786D01*
X15561786Y-13732500D01*
X15590357Y-13718214D01*
X15818928Y-14018214D02*
X15818928Y-13818214D01*
X15818928Y-13846786D02*
X15833214Y-13832500D01*
X15861786Y-13818214D01*
X15904643Y-13818214D01*
X15933214Y-13832500D01*
X15947500Y-13861071D01*
X15947500Y-14018214D01*
X15947500Y-13861071D02*
X15961786Y-13832500D01*
X15990357Y-13818214D01*
X16033214Y-13818214D01*
X16061786Y-13832500D01*
X16076071Y-13861071D01*
X16076071Y-14018214D01*
X16218928Y-14018214D02*
X16218928Y-13818214D01*
X16218928Y-13846786D02*
X16233214Y-13832500D01*
X16261786Y-13818214D01*
X16304643Y-13818214D01*
X16333214Y-13832500D01*
X16347500Y-13861071D01*
X16347500Y-14018214D01*
X16347500Y-13861071D02*
X16361786Y-13832500D01*
X16390357Y-13818214D01*
X16433214Y-13818214D01*
X16461786Y-13832500D01*
X16476071Y-13861071D01*
X16476071Y-14018214D01*
X17061786Y-13703929D02*
X16804643Y-14089643D01*
X17447500Y-13718214D02*
X17476071Y-13718214D01*
X17504643Y-13732500D01*
X17518928Y-13746786D01*
X17533214Y-13775357D01*
X17547500Y-13832500D01*
X17547500Y-13903929D01*
X17533214Y-13961071D01*
X17518928Y-13989643D01*
X17504643Y-14003929D01*
X17476071Y-14018214D01*
X17447500Y-14018214D01*
X17418928Y-14003929D01*
X17404643Y-13989643D01*
X17390357Y-13961071D01*
X17376071Y-13903929D01*
X17376071Y-13832500D01*
X17390357Y-13775357D01*
X17404643Y-13746786D01*
X17418928Y-13732500D01*
X17447500Y-13718214D01*
X17676071Y-13989643D02*
X17690357Y-14003929D01*
X17676071Y-14018214D01*
X17661786Y-14003929D01*
X17676071Y-13989643D01*
X17676071Y-14018214D01*
X17876071Y-13718214D02*
X17904643Y-13718214D01*
X17933214Y-13732500D01*
X17947500Y-13746786D01*
X17961786Y-13775357D01*
X17976071Y-13832500D01*
X17976071Y-13903929D01*
X17961786Y-13961071D01*
X17947500Y-13989643D01*
X17933214Y-14003929D01*
X17904643Y-14018214D01*
X17876071Y-14018214D01*
X17847500Y-14003929D01*
X17833214Y-13989643D01*
X17818928Y-13961071D01*
X17804643Y-13903929D01*
X17804643Y-13832500D01*
X17818928Y-13775357D01*
X17833214Y-13746786D01*
X17847500Y-13732500D01*
X17876071Y-13718214D01*
X18076071Y-13718214D02*
X18261786Y-13718214D01*
X18161786Y-13832500D01*
X18204643Y-13832500D01*
X18233214Y-13846786D01*
X18247500Y-13861071D01*
X18261786Y-13889643D01*
X18261786Y-13961071D01*
X18247500Y-13989643D01*
X18233214Y-14003929D01*
X18204643Y-14018214D01*
X18118928Y-14018214D01*
X18090357Y-14003929D01*
X18076071Y-13989643D01*
X18547500Y-14018214D02*
X18376071Y-14018214D01*
X18461786Y-14018214D02*
X18461786Y-13718214D01*
X18433214Y-13761071D01*
X18404643Y-13789643D01*
X18376071Y-13803929D01*
X18661786Y-13718214D02*
X18661786Y-13775357D01*
X18776071Y-13718214D02*
X18776071Y-13775357D01*
X19218928Y-14132500D02*
X19204643Y-14118214D01*
X19176071Y-14075357D01*
X19161786Y-14046786D01*
X19147500Y-14003929D01*
X19133214Y-13932500D01*
X19133214Y-13875357D01*
X19147500Y-13803929D01*
X19161786Y-13761071D01*
X19176071Y-13732500D01*
X19204643Y-13689643D01*
X19218928Y-13675357D01*
X19318928Y-13746786D02*
X19333214Y-13732500D01*
X19361786Y-13718214D01*
X19433214Y-13718214D01*
X19461786Y-13732500D01*
X19476071Y-13746786D01*
X19490357Y-13775357D01*
X19490357Y-13803929D01*
X19476071Y-13846786D01*
X19304643Y-14018214D01*
X19490357Y-14018214D01*
X19847500Y-14018214D02*
X19847500Y-13718214D01*
X19976071Y-14018214D02*
X19976071Y-13861071D01*
X19961786Y-13832500D01*
X19933214Y-13818214D01*
X19890357Y-13818214D01*
X19861786Y-13832500D01*
X19847500Y-13846786D01*
X20161786Y-14018214D02*
X20133214Y-14003929D01*
X20118928Y-13989643D01*
X20104643Y-13961071D01*
X20104643Y-13875357D01*
X20118928Y-13846786D01*
X20133214Y-13832500D01*
X20161786Y-13818214D01*
X20204643Y-13818214D01*
X20233214Y-13832500D01*
X20247500Y-13846786D01*
X20261786Y-13875357D01*
X20261786Y-13961071D01*
X20247500Y-13989643D01*
X20233214Y-14003929D01*
X20204643Y-14018214D01*
X20161786Y-14018214D01*
X20433214Y-14018214D02*
X20404643Y-14003929D01*
X20390357Y-13975357D01*
X20390357Y-13718214D01*
X20661786Y-14003929D02*
X20633214Y-14018214D01*
X20576071Y-14018214D01*
X20547500Y-14003929D01*
X20533214Y-13975357D01*
X20533214Y-13861071D01*
X20547500Y-13832500D01*
X20576071Y-13818214D01*
X20633214Y-13818214D01*
X20661786Y-13832500D01*
X20676071Y-13861071D01*
X20676071Y-13889643D01*
X20533214Y-13918214D01*
X20790357Y-14003929D02*
X20818929Y-14018214D01*
X20876071Y-14018214D01*
X20904643Y-14003929D01*
X20918929Y-13975357D01*
X20918929Y-13961071D01*
X20904643Y-13932500D01*
X20876071Y-13918214D01*
X20833214Y-13918214D01*
X20804643Y-13903929D01*
X20790357Y-13875357D01*
X20790357Y-13861071D01*
X20804643Y-13832500D01*
X20833214Y-13818214D01*
X20876071Y-13818214D01*
X20904643Y-13832500D01*
X21018928Y-14132500D02*
X21033214Y-14118214D01*
X21061786Y-14075357D01*
X21076071Y-14046786D01*
X21090357Y-14003929D01*
X21104643Y-13932500D01*
X21104643Y-13875357D01*
X21090357Y-13803929D01*
X21076071Y-13761071D01*
X21061786Y-13732500D01*
X21033214Y-13689643D01*
X21018928Y-13675357D01*
X14547500Y-14278500D02*
G75*
G03X14547500Y-14278500I-45000J0D01*
G01*
X14876071Y-14114214D02*
X14904643Y-14114214D01*
X14933214Y-14128500D01*
X14947500Y-14142786D01*
X14961786Y-14171357D01*
X14976071Y-14228500D01*
X14976071Y-14299929D01*
X14961786Y-14357071D01*
X14947500Y-14385643D01*
X14933214Y-14399929D01*
X14904643Y-14414214D01*
X14876071Y-14414214D01*
X14847500Y-14399929D01*
X14833214Y-14385643D01*
X14818928Y-14357071D01*
X14804643Y-14299929D01*
X14804643Y-14228500D01*
X14818928Y-14171357D01*
X14833214Y-14142786D01*
X14847500Y-14128500D01*
X14876071Y-14114214D01*
X15104643Y-14385643D02*
X15118928Y-14399929D01*
X15104643Y-14414214D01*
X15090357Y-14399929D01*
X15104643Y-14385643D01*
X15104643Y-14414214D01*
X15261786Y-14414214D02*
X15318928Y-14414214D01*
X15347500Y-14399929D01*
X15361786Y-14385643D01*
X15390357Y-14342786D01*
X15404643Y-14285643D01*
X15404643Y-14171357D01*
X15390357Y-14142786D01*
X15376071Y-14128500D01*
X15347500Y-14114214D01*
X15290357Y-14114214D01*
X15261786Y-14128500D01*
X15247500Y-14142786D01*
X15233214Y-14171357D01*
X15233214Y-14242786D01*
X15247500Y-14271357D01*
X15261786Y-14285643D01*
X15290357Y-14299929D01*
X15347500Y-14299929D01*
X15376071Y-14285643D01*
X15390357Y-14271357D01*
X15404643Y-14242786D01*
X15590357Y-14114214D02*
X15618928Y-14114214D01*
X15647500Y-14128500D01*
X15661786Y-14142786D01*
X15676071Y-14171357D01*
X15690357Y-14228500D01*
X15690357Y-14299929D01*
X15676071Y-14357071D01*
X15661786Y-14385643D01*
X15647500Y-14399929D01*
X15618928Y-14414214D01*
X15590357Y-14414214D01*
X15561786Y-14399929D01*
X15547500Y-14385643D01*
X15533214Y-14357071D01*
X15518928Y-14299929D01*
X15518928Y-14228500D01*
X15533214Y-14171357D01*
X15547500Y-14142786D01*
X15561786Y-14128500D01*
X15590357Y-14114214D01*
X15818928Y-14414214D02*
X15818928Y-14214214D01*
X15818928Y-14242786D02*
X15833214Y-14228500D01*
X15861786Y-14214214D01*
X15904643Y-14214214D01*
X15933214Y-14228500D01*
X15947500Y-14257071D01*
X15947500Y-14414214D01*
X15947500Y-14257071D02*
X15961786Y-14228500D01*
X15990357Y-14214214D01*
X16033214Y-14214214D01*
X16061786Y-14228500D01*
X16076071Y-14257071D01*
X16076071Y-14414214D01*
X16218928Y-14414214D02*
X16218928Y-14214214D01*
X16218928Y-14242786D02*
X16233214Y-14228500D01*
X16261786Y-14214214D01*
X16304643Y-14214214D01*
X16333214Y-14228500D01*
X16347500Y-14257071D01*
X16347500Y-14414214D01*
X16347500Y-14257071D02*
X16361786Y-14228500D01*
X16390357Y-14214214D01*
X16433214Y-14214214D01*
X16461786Y-14228500D01*
X16476071Y-14257071D01*
X16476071Y-14414214D01*
X17061786Y-14099929D02*
X16804643Y-14485643D01*
X17447500Y-14114214D02*
X17476071Y-14114214D01*
X17504643Y-14128500D01*
X17518928Y-14142786D01*
X17533214Y-14171357D01*
X17547500Y-14228500D01*
X17547500Y-14299929D01*
X17533214Y-14357071D01*
X17518928Y-14385643D01*
X17504643Y-14399929D01*
X17476071Y-14414214D01*
X17447500Y-14414214D01*
X17418928Y-14399929D01*
X17404643Y-14385643D01*
X17390357Y-14357071D01*
X17376071Y-14299929D01*
X17376071Y-14228500D01*
X17390357Y-14171357D01*
X17404643Y-14142786D01*
X17418928Y-14128500D01*
X17447500Y-14114214D01*
X17676071Y-14385643D02*
X17690357Y-14399929D01*
X17676071Y-14414214D01*
X17661786Y-14399929D01*
X17676071Y-14385643D01*
X17676071Y-14414214D01*
X17876071Y-14114214D02*
X17904643Y-14114214D01*
X17933214Y-14128500D01*
X17947500Y-14142786D01*
X17961786Y-14171357D01*
X17976071Y-14228500D01*
X17976071Y-14299929D01*
X17961786Y-14357071D01*
X17947500Y-14385643D01*
X17933214Y-14399929D01*
X17904643Y-14414214D01*
X17876071Y-14414214D01*
X17847500Y-14399929D01*
X17833214Y-14385643D01*
X17818928Y-14357071D01*
X17804643Y-14299929D01*
X17804643Y-14228500D01*
X17818928Y-14171357D01*
X17833214Y-14142786D01*
X17847500Y-14128500D01*
X17876071Y-14114214D01*
X18076071Y-14114214D02*
X18261786Y-14114214D01*
X18161786Y-14228500D01*
X18204643Y-14228500D01*
X18233214Y-14242786D01*
X18247500Y-14257071D01*
X18261786Y-14285643D01*
X18261786Y-14357071D01*
X18247500Y-14385643D01*
X18233214Y-14399929D01*
X18204643Y-14414214D01*
X18118928Y-14414214D01*
X18090357Y-14399929D01*
X18076071Y-14385643D01*
X18533214Y-14114214D02*
X18390357Y-14114214D01*
X18376071Y-14257071D01*
X18390357Y-14242786D01*
X18418928Y-14228500D01*
X18490357Y-14228500D01*
X18518928Y-14242786D01*
X18533214Y-14257071D01*
X18547500Y-14285643D01*
X18547500Y-14357071D01*
X18533214Y-14385643D01*
X18518928Y-14399929D01*
X18490357Y-14414214D01*
X18418928Y-14414214D01*
X18390357Y-14399929D01*
X18376071Y-14385643D01*
X18661786Y-14114214D02*
X18661786Y-14171357D01*
X18776071Y-14114214D02*
X18776071Y-14171357D01*
X19218928Y-14528500D02*
X19204643Y-14514214D01*
X19176071Y-14471357D01*
X19161786Y-14442786D01*
X19147500Y-14399929D01*
X19133214Y-14328500D01*
X19133214Y-14271357D01*
X19147500Y-14199929D01*
X19161786Y-14157071D01*
X19176071Y-14128500D01*
X19204643Y-14085643D01*
X19218928Y-14071357D01*
X19461786Y-14214214D02*
X19461786Y-14414214D01*
X19390357Y-14099929D02*
X19318928Y-14314214D01*
X19504643Y-14314214D01*
X19847500Y-14414214D02*
X19847500Y-14114214D01*
X19976071Y-14414214D02*
X19976071Y-14257071D01*
X19961786Y-14228500D01*
X19933214Y-14214214D01*
X19890357Y-14214214D01*
X19861786Y-14228500D01*
X19847500Y-14242786D01*
X20161786Y-14414214D02*
X20133214Y-14399929D01*
X20118928Y-14385643D01*
X20104643Y-14357071D01*
X20104643Y-14271357D01*
X20118928Y-14242786D01*
X20133214Y-14228500D01*
X20161786Y-14214214D01*
X20204643Y-14214214D01*
X20233214Y-14228500D01*
X20247500Y-14242786D01*
X20261786Y-14271357D01*
X20261786Y-14357071D01*
X20247500Y-14385643D01*
X20233214Y-14399929D01*
X20204643Y-14414214D01*
X20161786Y-14414214D01*
X20433214Y-14414214D02*
X20404643Y-14399929D01*
X20390357Y-14371357D01*
X20390357Y-14114214D01*
X20661786Y-14399929D02*
X20633214Y-14414214D01*
X20576071Y-14414214D01*
X20547500Y-14399929D01*
X20533214Y-14371357D01*
X20533214Y-14257071D01*
X20547500Y-14228500D01*
X20576071Y-14214214D01*
X20633214Y-14214214D01*
X20661786Y-14228500D01*
X20676071Y-14257071D01*
X20676071Y-14285643D01*
X20533214Y-14314214D01*
X20790357Y-14399929D02*
X20818929Y-14414214D01*
X20876071Y-14414214D01*
X20904643Y-14399929D01*
X20918929Y-14371357D01*
X20918929Y-14357071D01*
X20904643Y-14328500D01*
X20876071Y-14314214D01*
X20833214Y-14314214D01*
X20804643Y-14299929D01*
X20790357Y-14271357D01*
X20790357Y-14257071D01*
X20804643Y-14228500D01*
X20833214Y-14214214D01*
X20876071Y-14214214D01*
X20904643Y-14228500D01*
X21018928Y-14528500D02*
X21033214Y-14514214D01*
X21061786Y-14471357D01*
X21076071Y-14442786D01*
X21090357Y-14399929D01*
X21104643Y-14328500D01*
X21104643Y-14271357D01*
X21090357Y-14199929D01*
X21076071Y-14157071D01*
X21061786Y-14128500D01*
X21033214Y-14085643D01*
X21018928Y-14071357D01*
X14497462Y-14624462D02*
X14497462Y-14724538D01*
X14447424Y-14674500D02*
X14547500Y-14674500D01*
X14976071Y-14810214D02*
X14804643Y-14810214D01*
X14890357Y-14810214D02*
X14890357Y-14510214D01*
X14861786Y-14553071D01*
X14833214Y-14581643D01*
X14804643Y-14595929D01*
X15104643Y-14781643D02*
X15118928Y-14795929D01*
X15104643Y-14810214D01*
X15090357Y-14795929D01*
X15104643Y-14781643D01*
X15104643Y-14810214D01*
X15304643Y-14510214D02*
X15333214Y-14510214D01*
X15361786Y-14524500D01*
X15376071Y-14538786D01*
X15390357Y-14567357D01*
X15404643Y-14624500D01*
X15404643Y-14695929D01*
X15390357Y-14753071D01*
X15376071Y-14781643D01*
X15361786Y-14795929D01*
X15333214Y-14810214D01*
X15304643Y-14810214D01*
X15276071Y-14795929D01*
X15261786Y-14781643D01*
X15247500Y-14753071D01*
X15233214Y-14695929D01*
X15233214Y-14624500D01*
X15247500Y-14567357D01*
X15261786Y-14538786D01*
X15276071Y-14524500D01*
X15304643Y-14510214D01*
X15590357Y-14510214D02*
X15618928Y-14510214D01*
X15647500Y-14524500D01*
X15661786Y-14538786D01*
X15676071Y-14567357D01*
X15690357Y-14624500D01*
X15690357Y-14695929D01*
X15676071Y-14753071D01*
X15661786Y-14781643D01*
X15647500Y-14795929D01*
X15618928Y-14810214D01*
X15590357Y-14810214D01*
X15561786Y-14795929D01*
X15547500Y-14781643D01*
X15533214Y-14753071D01*
X15518928Y-14695929D01*
X15518928Y-14624500D01*
X15533214Y-14567357D01*
X15547500Y-14538786D01*
X15561786Y-14524500D01*
X15590357Y-14510214D01*
X15818928Y-14810214D02*
X15818928Y-14610214D01*
X15818928Y-14638786D02*
X15833214Y-14624500D01*
X15861786Y-14610214D01*
X15904643Y-14610214D01*
X15933214Y-14624500D01*
X15947500Y-14653071D01*
X15947500Y-14810214D01*
X15947500Y-14653071D02*
X15961786Y-14624500D01*
X15990357Y-14610214D01*
X16033214Y-14610214D01*
X16061786Y-14624500D01*
X16076071Y-14653071D01*
X16076071Y-14810214D01*
X16218928Y-14810214D02*
X16218928Y-14610214D01*
X16218928Y-14638786D02*
X16233214Y-14624500D01*
X16261786Y-14610214D01*
X16304643Y-14610214D01*
X16333214Y-14624500D01*
X16347500Y-14653071D01*
X16347500Y-14810214D01*
X16347500Y-14653071D02*
X16361786Y-14624500D01*
X16390357Y-14610214D01*
X16433214Y-14610214D01*
X16461786Y-14624500D01*
X16476071Y-14653071D01*
X16476071Y-14810214D01*
X17061786Y-14495929D02*
X16804643Y-14881643D01*
X17447500Y-14510214D02*
X17476071Y-14510214D01*
X17504643Y-14524500D01*
X17518928Y-14538786D01*
X17533214Y-14567357D01*
X17547500Y-14624500D01*
X17547500Y-14695929D01*
X17533214Y-14753071D01*
X17518928Y-14781643D01*
X17504643Y-14795929D01*
X17476071Y-14810214D01*
X17447500Y-14810214D01*
X17418928Y-14795929D01*
X17404643Y-14781643D01*
X17390357Y-14753071D01*
X17376071Y-14695929D01*
X17376071Y-14624500D01*
X17390357Y-14567357D01*
X17404643Y-14538786D01*
X17418928Y-14524500D01*
X17447500Y-14510214D01*
X17676071Y-14781643D02*
X17690357Y-14795929D01*
X17676071Y-14810214D01*
X17661786Y-14795929D01*
X17676071Y-14781643D01*
X17676071Y-14810214D01*
X17876071Y-14510214D02*
X17904643Y-14510214D01*
X17933214Y-14524500D01*
X17947500Y-14538786D01*
X17961786Y-14567357D01*
X17976071Y-14624500D01*
X17976071Y-14695929D01*
X17961786Y-14753071D01*
X17947500Y-14781643D01*
X17933214Y-14795929D01*
X17904643Y-14810214D01*
X17876071Y-14810214D01*
X17847500Y-14795929D01*
X17833214Y-14781643D01*
X17818928Y-14753071D01*
X17804643Y-14695929D01*
X17804643Y-14624500D01*
X17818928Y-14567357D01*
X17833214Y-14538786D01*
X17847500Y-14524500D01*
X17876071Y-14510214D01*
X18076071Y-14510214D02*
X18261786Y-14510214D01*
X18161786Y-14624500D01*
X18204643Y-14624500D01*
X18233214Y-14638786D01*
X18247500Y-14653071D01*
X18261786Y-14681643D01*
X18261786Y-14753071D01*
X18247500Y-14781643D01*
X18233214Y-14795929D01*
X18204643Y-14810214D01*
X18118928Y-14810214D01*
X18090357Y-14795929D01*
X18076071Y-14781643D01*
X18404643Y-14810214D02*
X18461786Y-14810214D01*
X18490357Y-14795929D01*
X18504643Y-14781643D01*
X18533214Y-14738786D01*
X18547500Y-14681643D01*
X18547500Y-14567357D01*
X18533214Y-14538786D01*
X18518928Y-14524500D01*
X18490357Y-14510214D01*
X18433214Y-14510214D01*
X18404643Y-14524500D01*
X18390357Y-14538786D01*
X18376071Y-14567357D01*
X18376071Y-14638786D01*
X18390357Y-14667357D01*
X18404643Y-14681643D01*
X18433214Y-14695929D01*
X18490357Y-14695929D01*
X18518928Y-14681643D01*
X18533214Y-14667357D01*
X18547500Y-14638786D01*
X18661786Y-14510214D02*
X18661786Y-14567357D01*
X18776071Y-14510214D02*
X18776071Y-14567357D01*
X19218928Y-14924500D02*
X19204643Y-14910214D01*
X19176071Y-14867357D01*
X19161786Y-14838786D01*
X19147500Y-14795929D01*
X19133214Y-14724500D01*
X19133214Y-14667357D01*
X19147500Y-14595929D01*
X19161786Y-14553071D01*
X19176071Y-14524500D01*
X19204643Y-14481643D01*
X19218928Y-14467357D01*
X19490357Y-14810214D02*
X19318928Y-14810214D01*
X19404643Y-14810214D02*
X19404643Y-14510214D01*
X19376071Y-14553071D01*
X19347500Y-14581643D01*
X19318928Y-14595929D01*
X19776071Y-14810214D02*
X19604643Y-14810214D01*
X19690357Y-14810214D02*
X19690357Y-14510214D01*
X19661786Y-14553071D01*
X19633214Y-14581643D01*
X19604643Y-14595929D01*
X20133214Y-14810214D02*
X20133214Y-14510214D01*
X20261786Y-14810214D02*
X20261786Y-14653071D01*
X20247500Y-14624500D01*
X20218928Y-14610214D01*
X20176071Y-14610214D01*
X20147500Y-14624500D01*
X20133214Y-14638786D01*
X20447500Y-14810214D02*
X20418928Y-14795929D01*
X20404643Y-14781643D01*
X20390357Y-14753071D01*
X20390357Y-14667357D01*
X20404643Y-14638786D01*
X20418928Y-14624500D01*
X20447500Y-14610214D01*
X20490357Y-14610214D01*
X20518928Y-14624500D01*
X20533214Y-14638786D01*
X20547500Y-14667357D01*
X20547500Y-14753071D01*
X20533214Y-14781643D01*
X20518928Y-14795929D01*
X20490357Y-14810214D01*
X20447500Y-14810214D01*
X20718928Y-14810214D02*
X20690357Y-14795929D01*
X20676071Y-14767357D01*
X20676071Y-14510214D01*
X20947500Y-14795929D02*
X20918929Y-14810214D01*
X20861786Y-14810214D01*
X20833214Y-14795929D01*
X20818929Y-14767357D01*
X20818929Y-14653071D01*
X20833214Y-14624500D01*
X20861786Y-14610214D01*
X20918929Y-14610214D01*
X20947500Y-14624500D01*
X20961786Y-14653071D01*
X20961786Y-14681643D01*
X20818929Y-14710214D01*
X21076071Y-14795929D02*
X21104643Y-14810214D01*
X21161786Y-14810214D01*
X21190357Y-14795929D01*
X21204643Y-14767357D01*
X21204643Y-14753071D01*
X21190357Y-14724500D01*
X21161786Y-14710214D01*
X21118929Y-14710214D01*
X21090357Y-14695929D01*
X21076071Y-14667357D01*
X21076071Y-14653071D01*
X21090357Y-14624500D01*
X21118929Y-14610214D01*
X21161786Y-14610214D01*
X21190357Y-14624500D01*
X21304643Y-14924500D02*
X21318929Y-14910214D01*
X21347500Y-14867357D01*
X21361786Y-14838786D01*
X21376071Y-14795929D01*
X21390357Y-14724500D01*
X21390357Y-14667357D01*
X21376071Y-14595929D01*
X21361786Y-14553071D01*
X21347500Y-14524500D01*
X21318929Y-14481643D01*
X21304643Y-14467357D01*
X14531394Y-15109385D02*
X14531394Y-15031615D01*
X14453624Y-15031615D01*
X14453624Y-15109385D01*
X14531394Y-15109385D01*
X14976071Y-15206214D02*
X14804643Y-15206214D01*
X14890357Y-15206214D02*
X14890357Y-14906214D01*
X14861786Y-14949071D01*
X14833214Y-14977643D01*
X14804643Y-14991929D01*
X15104643Y-15177643D02*
X15118928Y-15191929D01*
X15104643Y-15206214D01*
X15090357Y-15191929D01*
X15104643Y-15177643D01*
X15104643Y-15206214D01*
X15404643Y-15206214D02*
X15233214Y-15206214D01*
X15318928Y-15206214D02*
X15318928Y-14906214D01*
X15290357Y-14949071D01*
X15261786Y-14977643D01*
X15233214Y-14991929D01*
X15590357Y-14906214D02*
X15618928Y-14906214D01*
X15647500Y-14920500D01*
X15661786Y-14934786D01*
X15676071Y-14963357D01*
X15690357Y-15020500D01*
X15690357Y-15091929D01*
X15676071Y-15149071D01*
X15661786Y-15177643D01*
X15647500Y-15191929D01*
X15618928Y-15206214D01*
X15590357Y-15206214D01*
X15561786Y-15191929D01*
X15547500Y-15177643D01*
X15533214Y-15149071D01*
X15518928Y-15091929D01*
X15518928Y-15020500D01*
X15533214Y-14963357D01*
X15547500Y-14934786D01*
X15561786Y-14920500D01*
X15590357Y-14906214D01*
X15818928Y-15206214D02*
X15818928Y-15006214D01*
X15818928Y-15034786D02*
X15833214Y-15020500D01*
X15861786Y-15006214D01*
X15904643Y-15006214D01*
X15933214Y-15020500D01*
X15947500Y-15049071D01*
X15947500Y-15206214D01*
X15947500Y-15049071D02*
X15961786Y-15020500D01*
X15990357Y-15006214D01*
X16033214Y-15006214D01*
X16061786Y-15020500D01*
X16076071Y-15049071D01*
X16076071Y-15206214D01*
X16218928Y-15206214D02*
X16218928Y-15006214D01*
X16218928Y-15034786D02*
X16233214Y-15020500D01*
X16261786Y-15006214D01*
X16304643Y-15006214D01*
X16333214Y-15020500D01*
X16347500Y-15049071D01*
X16347500Y-15206214D01*
X16347500Y-15049071D02*
X16361786Y-15020500D01*
X16390357Y-15006214D01*
X16433214Y-15006214D01*
X16461786Y-15020500D01*
X16476071Y-15049071D01*
X16476071Y-15206214D01*
X17061786Y-14891929D02*
X16804643Y-15277643D01*
X17447500Y-14906214D02*
X17476071Y-14906214D01*
X17504643Y-14920500D01*
X17518928Y-14934786D01*
X17533214Y-14963357D01*
X17547500Y-15020500D01*
X17547500Y-15091929D01*
X17533214Y-15149071D01*
X17518928Y-15177643D01*
X17504643Y-15191929D01*
X17476071Y-15206214D01*
X17447500Y-15206214D01*
X17418928Y-15191929D01*
X17404643Y-15177643D01*
X17390357Y-15149071D01*
X17376071Y-15091929D01*
X17376071Y-15020500D01*
X17390357Y-14963357D01*
X17404643Y-14934786D01*
X17418928Y-14920500D01*
X17447500Y-14906214D01*
X17676071Y-15177643D02*
X17690357Y-15191929D01*
X17676071Y-15206214D01*
X17661786Y-15191929D01*
X17676071Y-15177643D01*
X17676071Y-15206214D01*
X17876071Y-14906214D02*
X17904643Y-14906214D01*
X17933214Y-14920500D01*
X17947500Y-14934786D01*
X17961786Y-14963357D01*
X17976071Y-15020500D01*
X17976071Y-15091929D01*
X17961786Y-15149071D01*
X17947500Y-15177643D01*
X17933214Y-15191929D01*
X17904643Y-15206214D01*
X17876071Y-15206214D01*
X17847500Y-15191929D01*
X17833214Y-15177643D01*
X17818928Y-15149071D01*
X17804643Y-15091929D01*
X17804643Y-15020500D01*
X17818928Y-14963357D01*
X17833214Y-14934786D01*
X17847500Y-14920500D01*
X17876071Y-14906214D01*
X18233214Y-15006214D02*
X18233214Y-15206214D01*
X18161786Y-14891929D02*
X18090357Y-15106214D01*
X18276071Y-15106214D01*
X18361786Y-14906214D02*
X18547500Y-14906214D01*
X18447500Y-15020500D01*
X18490357Y-15020500D01*
X18518928Y-15034786D01*
X18533214Y-15049071D01*
X18547500Y-15077643D01*
X18547500Y-15149071D01*
X18533214Y-15177643D01*
X18518928Y-15191929D01*
X18490357Y-15206214D01*
X18404643Y-15206214D01*
X18376071Y-15191929D01*
X18361786Y-15177643D01*
X18661786Y-14906214D02*
X18661786Y-14963357D01*
X18776071Y-14906214D02*
X18776071Y-14963357D01*
X19218928Y-15320500D02*
X19204643Y-15306214D01*
X19176071Y-15263357D01*
X19161786Y-15234786D01*
X19147500Y-15191929D01*
X19133214Y-15120500D01*
X19133214Y-15063357D01*
X19147500Y-14991929D01*
X19161786Y-14949071D01*
X19176071Y-14920500D01*
X19204643Y-14877643D01*
X19218928Y-14863357D01*
X19476071Y-14906214D02*
X19333214Y-14906214D01*
X19318928Y-15049071D01*
X19333214Y-15034786D01*
X19361786Y-15020500D01*
X19433214Y-15020500D01*
X19461786Y-15034786D01*
X19476071Y-15049071D01*
X19490357Y-15077643D01*
X19490357Y-15149071D01*
X19476071Y-15177643D01*
X19461786Y-15191929D01*
X19433214Y-15206214D01*
X19361786Y-15206214D01*
X19333214Y-15191929D01*
X19318928Y-15177643D01*
X19847500Y-15206214D02*
X19847500Y-14906214D01*
X19976071Y-15206214D02*
X19976071Y-15049071D01*
X19961786Y-15020500D01*
X19933214Y-15006214D01*
X19890357Y-15006214D01*
X19861786Y-15020500D01*
X19847500Y-15034786D01*
X20161786Y-15206214D02*
X20133214Y-15191929D01*
X20118928Y-15177643D01*
X20104643Y-15149071D01*
X20104643Y-15063357D01*
X20118928Y-15034786D01*
X20133214Y-15020500D01*
X20161786Y-15006214D01*
X20204643Y-15006214D01*
X20233214Y-15020500D01*
X20247500Y-15034786D01*
X20261786Y-15063357D01*
X20261786Y-15149071D01*
X20247500Y-15177643D01*
X20233214Y-15191929D01*
X20204643Y-15206214D01*
X20161786Y-15206214D01*
X20433214Y-15206214D02*
X20404643Y-15191929D01*
X20390357Y-15163357D01*
X20390357Y-14906214D01*
X20661786Y-15191929D02*
X20633214Y-15206214D01*
X20576071Y-15206214D01*
X20547500Y-15191929D01*
X20533214Y-15163357D01*
X20533214Y-15049071D01*
X20547500Y-15020500D01*
X20576071Y-15006214D01*
X20633214Y-15006214D01*
X20661786Y-15020500D01*
X20676071Y-15049071D01*
X20676071Y-15077643D01*
X20533214Y-15106214D01*
X20790357Y-15191929D02*
X20818929Y-15206214D01*
X20876071Y-15206214D01*
X20904643Y-15191929D01*
X20918929Y-15163357D01*
X20918929Y-15149071D01*
X20904643Y-15120500D01*
X20876071Y-15106214D01*
X20833214Y-15106214D01*
X20804643Y-15091929D01*
X20790357Y-15063357D01*
X20790357Y-15049071D01*
X20804643Y-15020500D01*
X20833214Y-15006214D01*
X20876071Y-15006214D01*
X20904643Y-15020500D01*
X21018928Y-15320500D02*
X21033214Y-15306214D01*
X21061786Y-15263357D01*
X21076071Y-15234786D01*
X21090357Y-15191929D01*
X21104643Y-15120500D01*
X21104643Y-15063357D01*
X21090357Y-14991929D01*
X21076071Y-14949071D01*
X21061786Y-14920500D01*
X21033214Y-14877643D01*
X21018928Y-14863357D01*
X14471300Y-15542700D02*
X14547500Y-15466500D01*
X14471300Y-15390300D01*
X14395100Y-15466500D01*
X14471300Y-15542700D01*
X14976071Y-15602214D02*
X14804643Y-15602214D01*
X14890357Y-15602214D02*
X14890357Y-15302214D01*
X14861786Y-15345071D01*
X14833214Y-15373643D01*
X14804643Y-15387929D01*
X15104643Y-15573643D02*
X15118928Y-15587929D01*
X15104643Y-15602214D01*
X15090357Y-15587929D01*
X15104643Y-15573643D01*
X15104643Y-15602214D01*
X15390357Y-15302214D02*
X15247500Y-15302214D01*
X15233214Y-15445071D01*
X15247500Y-15430786D01*
X15276071Y-15416500D01*
X15347500Y-15416500D01*
X15376071Y-15430786D01*
X15390357Y-15445071D01*
X15404643Y-15473643D01*
X15404643Y-15545071D01*
X15390357Y-15573643D01*
X15376071Y-15587929D01*
X15347500Y-15602214D01*
X15276071Y-15602214D01*
X15247500Y-15587929D01*
X15233214Y-15573643D01*
X15518928Y-15330786D02*
X15533214Y-15316500D01*
X15561786Y-15302214D01*
X15633214Y-15302214D01*
X15661786Y-15316500D01*
X15676071Y-15330786D01*
X15690357Y-15359357D01*
X15690357Y-15387929D01*
X15676071Y-15430786D01*
X15504643Y-15602214D01*
X15690357Y-15602214D01*
X15818928Y-15602214D02*
X15818928Y-15402214D01*
X15818928Y-15430786D02*
X15833214Y-15416500D01*
X15861786Y-15402214D01*
X15904643Y-15402214D01*
X15933214Y-15416500D01*
X15947500Y-15445071D01*
X15947500Y-15602214D01*
X15947500Y-15445071D02*
X15961786Y-15416500D01*
X15990357Y-15402214D01*
X16033214Y-15402214D01*
X16061786Y-15416500D01*
X16076071Y-15445071D01*
X16076071Y-15602214D01*
X16218928Y-15602214D02*
X16218928Y-15402214D01*
X16218928Y-15430786D02*
X16233214Y-15416500D01*
X16261786Y-15402214D01*
X16304643Y-15402214D01*
X16333214Y-15416500D01*
X16347500Y-15445071D01*
X16347500Y-15602214D01*
X16347500Y-15445071D02*
X16361786Y-15416500D01*
X16390357Y-15402214D01*
X16433214Y-15402214D01*
X16461786Y-15416500D01*
X16476071Y-15445071D01*
X16476071Y-15602214D01*
X17061786Y-15287929D02*
X16804643Y-15673643D01*
X17447500Y-15302214D02*
X17476071Y-15302214D01*
X17504643Y-15316500D01*
X17518928Y-15330786D01*
X17533214Y-15359357D01*
X17547500Y-15416500D01*
X17547500Y-15487929D01*
X17533214Y-15545071D01*
X17518928Y-15573643D01*
X17504643Y-15587929D01*
X17476071Y-15602214D01*
X17447500Y-15602214D01*
X17418928Y-15587929D01*
X17404643Y-15573643D01*
X17390357Y-15545071D01*
X17376071Y-15487929D01*
X17376071Y-15416500D01*
X17390357Y-15359357D01*
X17404643Y-15330786D01*
X17418928Y-15316500D01*
X17447500Y-15302214D01*
X17676071Y-15573643D02*
X17690357Y-15587929D01*
X17676071Y-15602214D01*
X17661786Y-15587929D01*
X17676071Y-15573643D01*
X17676071Y-15602214D01*
X17876071Y-15302214D02*
X17904643Y-15302214D01*
X17933214Y-15316500D01*
X17947500Y-15330786D01*
X17961786Y-15359357D01*
X17976071Y-15416500D01*
X17976071Y-15487929D01*
X17961786Y-15545071D01*
X17947500Y-15573643D01*
X17933214Y-15587929D01*
X17904643Y-15602214D01*
X17876071Y-15602214D01*
X17847500Y-15587929D01*
X17833214Y-15573643D01*
X17818928Y-15545071D01*
X17804643Y-15487929D01*
X17804643Y-15416500D01*
X17818928Y-15359357D01*
X17833214Y-15330786D01*
X17847500Y-15316500D01*
X17876071Y-15302214D01*
X18233214Y-15302214D02*
X18176071Y-15302214D01*
X18147500Y-15316500D01*
X18133214Y-15330786D01*
X18104643Y-15373643D01*
X18090357Y-15430786D01*
X18090357Y-15545071D01*
X18104643Y-15573643D01*
X18118928Y-15587929D01*
X18147500Y-15602214D01*
X18204643Y-15602214D01*
X18233214Y-15587929D01*
X18247500Y-15573643D01*
X18261786Y-15545071D01*
X18261786Y-15473643D01*
X18247500Y-15445071D01*
X18233214Y-15430786D01*
X18204643Y-15416500D01*
X18147500Y-15416500D01*
X18118928Y-15430786D01*
X18104643Y-15445071D01*
X18090357Y-15473643D01*
X18447500Y-15302214D02*
X18476071Y-15302214D01*
X18504643Y-15316500D01*
X18518928Y-15330786D01*
X18533214Y-15359357D01*
X18547500Y-15416500D01*
X18547500Y-15487929D01*
X18533214Y-15545071D01*
X18518928Y-15573643D01*
X18504643Y-15587929D01*
X18476071Y-15602214D01*
X18447500Y-15602214D01*
X18418928Y-15587929D01*
X18404643Y-15573643D01*
X18390357Y-15545071D01*
X18376071Y-15487929D01*
X18376071Y-15416500D01*
X18390357Y-15359357D01*
X18404643Y-15330786D01*
X18418928Y-15316500D01*
X18447500Y-15302214D01*
X18661786Y-15302214D02*
X18661786Y-15359357D01*
X18776071Y-15302214D02*
X18776071Y-15359357D01*
X19218928Y-15716500D02*
X19204643Y-15702214D01*
X19176071Y-15659357D01*
X19161786Y-15630786D01*
X19147500Y-15587929D01*
X19133214Y-15516500D01*
X19133214Y-15459357D01*
X19147500Y-15387929D01*
X19161786Y-15345071D01*
X19176071Y-15316500D01*
X19204643Y-15273643D01*
X19218928Y-15259357D01*
X19461786Y-15402214D02*
X19461786Y-15602214D01*
X19390357Y-15287929D02*
X19318928Y-15502214D01*
X19504643Y-15502214D01*
X19847500Y-15602214D02*
X19847500Y-15302214D01*
X19976071Y-15602214D02*
X19976071Y-15445071D01*
X19961786Y-15416500D01*
X19933214Y-15402214D01*
X19890357Y-15402214D01*
X19861786Y-15416500D01*
X19847500Y-15430786D01*
X20161786Y-15602214D02*
X20133214Y-15587929D01*
X20118928Y-15573643D01*
X20104643Y-15545071D01*
X20104643Y-15459357D01*
X20118928Y-15430786D01*
X20133214Y-15416500D01*
X20161786Y-15402214D01*
X20204643Y-15402214D01*
X20233214Y-15416500D01*
X20247500Y-15430786D01*
X20261786Y-15459357D01*
X20261786Y-15545071D01*
X20247500Y-15573643D01*
X20233214Y-15587929D01*
X20204643Y-15602214D01*
X20161786Y-15602214D01*
X20433214Y-15602214D02*
X20404643Y-15587929D01*
X20390357Y-15559357D01*
X20390357Y-15302214D01*
X20661786Y-15587929D02*
X20633214Y-15602214D01*
X20576071Y-15602214D01*
X20547500Y-15587929D01*
X20533214Y-15559357D01*
X20533214Y-15445071D01*
X20547500Y-15416500D01*
X20576071Y-15402214D01*
X20633214Y-15402214D01*
X20661786Y-15416500D01*
X20676071Y-15445071D01*
X20676071Y-15473643D01*
X20533214Y-15502214D01*
X20790357Y-15587929D02*
X20818929Y-15602214D01*
X20876071Y-15602214D01*
X20904643Y-15587929D01*
X20918929Y-15559357D01*
X20918929Y-15545071D01*
X20904643Y-15516500D01*
X20876071Y-15502214D01*
X20833214Y-15502214D01*
X20804643Y-15487929D01*
X20790357Y-15459357D01*
X20790357Y-15445071D01*
X20804643Y-15416500D01*
X20833214Y-15402214D01*
X20876071Y-15402214D01*
X20904643Y-15416500D01*
X21018928Y-15716500D02*
X21033214Y-15702214D01*
X21061786Y-15659357D01*
X21076071Y-15630786D01*
X21090357Y-15587929D01*
X21104643Y-15516500D01*
X21104643Y-15459357D01*
X21090357Y-15387929D01*
X21076071Y-15345071D01*
X21061786Y-15316500D01*
X21033214Y-15273643D01*
X21018928Y-15259357D01*
M02*
